<svg width="542" height="348" viewBox="0 0 542 348" fill="none" xmlns="http://www.w3.org/2000/svg">
<path opacity="0.7" fill-rule="evenodd" clip-rule="evenodd" d="M295.681 0.339793C338.065 -0.707344 379.151 8.55014 414.941 24.6118C452.591 41.5079 482.237 64.9695 502.342 93.0833C525.42 125.355 552.109 161.296 537.46 195.937C522.733 230.761 466.392 244.817 427.951 268.994C383.746 296.795 354.882 347.567 295.681 347.998C236.553 348.427 210.356 294.357 161.415 270.932C109.846 246.248 17.4509 250.418 2.58237 207.707C-12.6179 164.043 63.3496 132.264 100.413 95.6964C124.989 71.4492 147.6 47.3205 182.335 30.3584C216.353 13.7458 254.34 1.36113 295.681 0.339793Z" fill="#D9BD32"/>
</svg>
