<?xml version="1.0" encoding="UTF-8" standalone="no"?>
<!-- Created with Inkscape (http://www.inkscape.org/) -->

<svg
   width="41"
   height="44"
   viewBox="0 0 10.847916 11.641667"
   version="1.1"
   id="svg5"
   xml:space="preserve"
   xmlns="http://www.w3.org/2000/svg"
   xmlns:svg="http://www.w3.org/2000/svg"><defs
     id="defs2" /><g
     id="layer1"><g
       id="g467"
       transform="matrix(0.10214606,0,0,0.08864255,-1.1119115,-1.9155955)"><path
         style="fill:#fba34c;stroke-width:0.256566"
         d="m 59.962468,108.51265 c -8.681233,-1.36727 -16.174298,-5.55777 -21.463093,-12.003235 -1.03641,-1.263075 -1.884383,-2.383141 -1.884383,-2.48903 0,-0.105893 0.750455,-0.61221 1.667677,-1.125149 1.111548,-0.621612 1.667677,-1.090239 1.667677,-1.405282 0,-0.700588 -1.796019,-3.588224 -2.231765,-3.588224 -0.206707,0 -1.075967,0.410338 -1.931688,0.911862 -0.855721,0.501522 -1.645843,0.819022 -1.755828,0.705556 -0.375037,-0.386914 -1.755422,-4.138592 -2.263432,-6.151662 -1.405226,-5.568448 -1.405226,-11.276197 0,-16.844644 0.518719,-2.05551 1.891207,-5.768079 2.280497,-6.168727 0.121825,-0.125378 0.887891,0.184148 1.746219,0.705556 0.84105,0.510909 1.710472,0.928927 1.932052,0.928927 0.427885,0 2.223945,-2.96241 2.223945,-3.668161 0,-0.240104 -0.69526,-0.800587 -1.667677,-1.344394 -0.917222,-0.512941 -1.667677,-1.013662 -1.667677,-1.112715 0,-0.369098 3.376992,-4.384117 4.678901,-5.5629 3.775079,-3.418062 8.321215,-6.101256 12.838387,-7.577399 2.315636,-0.756714 6.01892,-1.51625 7.392814,-1.51625 h 0.725713 l 0.07452,2.116667 0.07452,2.116666 h 2.180808 2.180809 l 0.07503,-2.148744 0.07503,-2.148744 1.831414,0.180463 c 6.527306,0.643184 13.660259,3.975905 19.047502,8.899543 1.396682,1.276486 4.755863,5.267377 4.755863,5.650225 0,0.104291 -0.750455,0.609297 -1.667677,1.122236 -0.94684,0.529505 -1.667677,1.106488 -1.667677,1.334873 0,0.686174 1.799039,3.658634 2.214336,3.658634 0.216293,0 1.093396,-0.410339 1.949117,-0.911863 0.855721,-0.501522 1.645843,-0.819022 1.755828,-0.705556 0.375037,0.386914 1.755422,4.138592 2.263432,6.151663 1.405226,5.568447 1.405226,11.276196 0,16.844644 -0.50838,2.01453 -1.888493,5.764866 -2.26401,6.152239 -0.110302,0.113787 -0.881,-0.203418 -1.712658,-0.704896 -0.831657,-0.501478 -1.708619,-0.912078 -1.948806,-0.91244 -0.476655,-7.7e-4 -2.257239,2.799917 -2.257239,3.550358 0,0.277951 0.62542,0.804449 1.667677,1.403902 0.917222,0.52754 1.667677,1.051842 1.667677,1.165116 0,0.405351 -4.058248,5.063251 -5.415265,6.215435 -3.413832,2.89853 -7.000548,5.05573 -10.748372,6.46454 -2.01578,0.75772 -5.704509,1.634 -7.878503,1.87158 l -1.592644,0.17404 -0.07503,-2.14857 -0.07503,-2.14858 H 64.58065 62.399842 l -0.07452,2.11667 -0.07452,2.11667 -0.823462,-0.0349 c -0.452906,-0.0192 -1.1121,-0.0804 -1.464877,-0.13596 z m 7.125108,-8.03053 c 6.356873,-0.730928 11.575008,-3.291187 15.909221,-7.805801 2.356656,-2.454748 3.534315,-4.166767 4.952046,-7.199022 1.694275,-3.623723 2.141179,-5.82198 2.141179,-10.532133 0,-3.467737 -0.09098,-4.443623 -0.586037,-6.285859 -2.514947,-9.358807 -9.772859,-16.455865 -19.20013,-18.774606 -3.179316,-0.781989 -8.267095,-0.781989 -11.446411,0 -6.122462,1.505887 -11.652001,5.217386 -15.22281,10.217751 -1.503637,2.105611 -3.259926,5.87686 -3.984968,8.556855 -0.501894,1.855162 -0.589128,2.79379 -0.584192,6.285859 0.0067,4.709647 0.456553,6.916635 2.146982,10.532133 1.418788,3.034515 2.595501,4.744335 4.961595,7.209426 4.180861,4.35579 9.643524,7.086413 15.560167,7.778067 2.450294,0.28644 2.997464,0.28821 5.353358,0.0173 z M 60.860447,95.492315 C 53.908087,94.129407 48.260161,89.685071 45.456807,83.371234 43.250165,78.401339 43.237596,71.493855 45.426186,66.545063 47.929271,60.885142 53.027593,56.49273 59.116011,54.750719 c 2.863999,-0.819446 8.065278,-0.819446 10.929277,0 6.088418,1.742011 11.18674,6.134423 13.689825,11.794344 2.18859,4.948792 2.176021,11.856276 -0.03062,16.826171 -2.561798,5.76979 -7.872817,10.256941 -13.992529,11.821948 -2.308683,0.590404 -6.622109,0.736174 -8.851517,0.299133 z m 6.029293,-7.69882 0.128283,-2.032475 1.411111,-0.388979 c 1.779914,-0.490638 4.081437,-2.658528 4.564073,-4.299068 0.673918,-2.290742 0.116642,-4.574774 -1.53024,-6.271771 -1.614401,-1.663531 -2.898199,-2.111076 -6.535551,-2.278354 -2.574944,-0.118418 -3.210619,-0.228321 -3.656061,-0.632096 -0.759108,-0.688101 -0.697579,-1.786787 0.136824,-2.443129 0.581735,-0.457592 1.034499,-0.531752 3.246482,-0.531752 h 2.570467 l 0.947441,1.026262 c 0.945398,1.024051 0.951638,1.026263 2.895951,1.026263 1.071683,0 2.022487,-0.119691 2.112898,-0.265982 0.309724,-0.501142 -0.174649,-2.272918 -0.935336,-3.421344 -0.83149,-1.255322 -2.746432,-2.628166 -4.021728,-2.883226 -1.137096,-0.22742 -1.298417,-0.524053 -1.385814,-2.548225 l -0.07708,-1.785264 h -2.180809 -2.180808 l -0.07708,1.785264 c -0.0874,2.024172 -0.248718,2.320805 -1.385814,2.548225 -1.279839,0.255968 -3.191307,1.62952 -4.030231,2.896065 -2.16311,3.265701 -0.783685,7.533878 3.018985,9.341242 0.940005,0.446774 1.848758,0.598858 4.307889,0.720945 2.563537,0.127269 3.212307,0.241454 3.656061,0.643479 0.759432,0.688017 0.698038,1.786659 -0.136529,2.443129 -0.581735,0.457592 -1.034499,0.531753 -3.246482,0.531753 H 61.936171 L 60.98873,79.948194 c -0.947281,-1.026088 -0.947774,-1.026263 -2.919145,-1.026263 -2.298703,0 -2.450672,0.156033 -1.937412,1.98921 0.603892,2.156889 2.771725,3.956379 5.818678,4.830006 0.21921,0.06285 0.320708,0.689946 0.320708,1.981487 0,1.039242 0.08126,1.970791 0.180576,2.070108 0.09931,0.09932 1.109541,0.147422 2.244949,0.106903 l 2.064374,-0.07367 z"
         id="path481" /><path
         style="fill:#a2a2a2;stroke-width:0.256566"
         d="m 34.754891,152.98428 c -0.105833,-0.25848 -0.192424,-2.12976 -0.192424,-4.1584 v -3.68842 l -1.988384,-0.0749 -1.988384,-0.0749 -0.076,-2.0473 c -0.09239,-2.48907 0.09707,-2.69916 2.434123,-2.69916 h 1.61864 v -1.79596 -1.79596 h -1.646693 c -2.469724,0 -2.458358,0.0108 -2.458358,-2.32752 0,-2.39049 0.156836,-2.54723 2.54879,-2.54723 h 1.556261 v -1.79596 -1.79596 h -1.646693 c -2.469724,0 -2.458358,0.0108 -2.458358,-2.32752 0,-2.39049 0.156836,-2.54723 2.54879,-2.54723 h 1.556261 l -0.0072,-2.24495 -0.0072,-2.24495 -1.966724,-1.41111 c -2.54217,-1.82409 -8.25989,-7.48486 -10.308725,-10.20617 C 16.514894,99.553167 12.904024,90.652106 11.740299,81.237752 11.394051,78.436663 11.394603,71.446901 11.741293,68.652575 14.41038,47.139703 29.774431,29.344041 50.608435,23.634074 c 1.789078,-0.490332 4.019496,-0.948129 4.956482,-1.017328 l 1.703611,-0.125815 -1.916214,0.370409 c -11.467403,2.216677 -21.101585,7.423387 -29.006932,15.676542 -7.389224,7.714324 -12.146686,17.284678 -14.016933,28.19718 -0.620895,3.622792 -0.623687,12.850435 -0.005,16.420203 2.394872,13.817482 9.153462,25.113265 20.250601,33.845295 l 2.501515,1.96837 v 2.13802 c 0,1.43421 -0.109091,2.22855 -0.331403,2.41305 -0.182272,0.15127 -1.134772,0.30973 -2.116667,0.35212 l -1.785263,0.0771 -0.07494,1.69143 c -0.05202,1.17404 0.02973,1.77832 0.267262,1.97545 0.188211,0.1562 1.145573,0.31869 2.127468,0.36108 l 1.785263,0.0771 0.07639,1.75491 c 0.04549,1.045 -0.04144,1.89689 -0.214886,2.10588 -0.184104,0.22183 -0.967425,0.37854 -2.128916,0.42589 l -1.837638,0.0749 -0.07494,1.69144 c -0.05202,1.17404 0.02973,1.77831 0.267262,1.97545 0.188211,0.1562 1.145573,0.31869 2.127468,0.36108 l 1.785263,0.0771 0.07457,1.82003 c 0.05242,1.27935 -0.02698,1.90431 -0.267262,2.10373 -0.188009,0.15603 -1.145204,0.31838 -2.127099,0.36078 l -1.785263,0.0771 -0.07697,1.62594 c -0.101864,2.1519 0.09252,2.35083 2.29724,2.35083 1.212122,0 1.812816,0.10481 1.899797,0.33148 0.208462,0.54324 0.0018,8.30472 -0.207446,7.79349 z m 59.395015,-3.76336 0.06408,-4.23333 1.785263,-0.0771 c 0.981895,-0.0424 1.939257,-0.20489 2.127468,-0.36109 0.237529,-0.19713 0.319281,-0.8014 0.267262,-1.97544 l -0.07494,-1.69144 -1.785263,-0.0771 c -0.981895,-0.0424 -1.93909,-0.20475 -2.127099,-0.36078 -0.240284,-0.19942 -0.319681,-0.82438 -0.267262,-2.10373 l 0.07457,-1.82003 1.785263,-0.0771 c 0.981895,-0.0424 1.939257,-0.20488 2.127468,-0.36108 0.237529,-0.19714 0.319281,-0.80141 0.267262,-1.97545 l -0.07494,-1.69144 -1.837638,-0.0749 c -1.161491,-0.0473 -1.944812,-0.20406 -2.128916,-0.42589 -0.173446,-0.20899 -0.260375,-1.06088 -0.214886,-2.10588 l 0.07639,-1.75491 1.785263,-0.0771 c 0.981895,-0.0424 1.939257,-0.20488 2.127468,-0.36108 0.237529,-0.19713 0.319281,-0.80141 0.267262,-1.97545 l -0.07494,-1.69143 -1.785263,-0.0771 c -0.981895,-0.0424 -1.934395,-0.20085 -2.116667,-0.35212 -0.222311,-0.1845 -0.331403,-0.97884 -0.331403,-2.41305 v -2.13802 l 2.501515,-1.96837 c 3.173002,-2.49675 7.040347,-6.28129 9.285497,-9.08671 11.72116,-14.646093 14.77861,-34.614619 7.96996,-52.052695 -4.34636,-11.131711 -12.1307,-20.279869 -22.536764,-26.485189 -4.96387,-2.960044 -11.686281,-5.481815 -17.23233,-6.464347 -1.683448,-0.298238 -1.937466,-0.391799 -1.113803,-0.410242 1.696156,-0.03798 7.74698,1.611046 11.527539,3.14159 17.660548,7.149799 30.198778,23.27616 32.803718,42.19132 0.45988,3.339323 0.52594,10.203971 0.12898,13.403465 -1.16823,9.415911 -4.78341,18.328435 -10.53132,25.962928 -2.04884,2.72131 -7.766562,8.38208 -10.308776,10.2061 l -1.966725,1.41111 -0.0072,2.24495 -0.0072,2.24495 h 1.556261 c 2.391962,0 2.548798,0.15674 2.548798,2.54723 0,2.33828 0.01137,2.32752 -2.458358,2.32752 h -1.646693 v 1.79596 1.79596 h 1.556261 c 2.391954,0 2.54879,0.15674 2.54879,2.54723 0,2.33828 0.01137,2.32752 -2.458358,2.32752 h -1.646693 v 1.79596 1.79596 h 1.61864 c 2.337054,0 2.526515,0.21009 2.434123,2.69916 l -0.076,2.0473 -1.988384,0.0749 -1.988384,0.0749 -0.0039,3.77355 c -0.0021,2.07545 -0.117587,3.94673 -0.256504,4.1584 -0.169803,0.25873 -0.231574,-1.00244 -0.188494,-3.84849 z m -54.796963,-0.16979 c -0.09476,-0.0948 -0.172294,-1.07669 -0.172294,-2.18206 v -2.00976 h 25.410376 25.410376 l -0.07452,2.11666 -0.07452,2.11667 -25.163565,0.0654 c -13.83996,0.036 -25.241097,-0.0121 -25.335859,-0.1069 z m 50.371142,-2.1393 v -1.79596 H 64.580649 39.437214 v 1.79596 1.79596 h 25.143435 25.143436 z m -50.371142,-6.32737 c -0.09476,-0.0948 -0.172294,-1.07668 -0.172294,-2.18206 v -2.00976 h 20.878687 c 17.672328,0 20.92488,-0.0557 21.179491,-0.36245 0.180909,-0.21798 0.270128,-1.01051 0.223838,-1.98838 l -0.07697,-1.62594 -21.038384,-0.12828 -21.038384,-0.12828 -0.07452,-2.11667 -0.07452,-2.11667 H 64.580638 90.00139 l -0.07452,2.11667 -0.07452,2.11667 -1.924242,0.12828 -1.924243,0.12828 -0.0768,1.77299 c -0.05393,1.24493 0.02248,1.83598 0.256565,1.98446 0.183352,0.1163 1.117356,0.21323 2.075563,0.21539 l 1.742193,0.004 -0.07452,2.11666 -0.07452,2.11667 -25.163565,0.0654 c -13.83996,0.036 -25.241097,-0.0121 -25.335859,-0.1069 z m 50.371142,-2.1285 v -1.78517 l -1.988384,-0.0749 -1.988384,-0.0749 -0.0752,-2.15883 c -0.05413,-1.55392 0.01775,-2.21781 0.256566,-2.3693 0.182472,-0.11576 1.111083,-0.21224 2.063583,-0.2144 l 1.731819,-0.004 v -1.79596 -1.79596 H 64.580649 39.437214 v 1.79596 1.79596 h 20.670403 c 13.75799,0 20.83636,0.0888 21.166667,0.26559 0.426007,0.22799 0.496265,0.55102 0.496265,2.28164 0,1.6017 -0.08341,2.04806 -0.405833,2.17178 -0.223207,0.0857 -9.748207,0.15574 -21.166667,0.15574 H 39.437214 v 1.79596 1.79596 H 64.580649 89.724085 Z M 39.352943,123.65113 c -0.09476,-0.0948 -0.17387,-1.50964 -0.175796,-3.14418 -0.0021,-1.63454 -0.07205,-3.22758 -0.155838,-3.54009 -0.08378,-0.31252 -0.744875,-0.94752 -1.469095,-1.41112 -3.46854,-2.22032 -7.402941,-5.74721 -10.385255,-9.30957 C 21.464866,99.435052 17.960393,91.777947 16.305246,82.513851 15.844281,79.93376 15.842122,69.975086 16.301965,67.376477 18.284878,56.170874 23.470328,46.502072 31.437656,39.154424 48.940104,23.01328 75.138457,21.744956 94.156839,36.118041 c 2.705528,2.044694 7.338451,6.686991 9.302851,9.321672 3.59958,4.827808 6.38754,10.37095 7.95483,15.816136 1.54987,5.384671 1.77327,7.130578 1.76805,13.817597 -0.004,5.593268 -0.0558,6.270499 -0.712,9.364647 -2.48623,11.724071 -8.50815,21.551667 -17.617828,28.751767 -1.05979,0.83764 -2.531836,1.91024 -3.271212,2.38357 -0.739373,0.47332 -1.361542,0.87741 -1.382596,0.89798 -0.02106,0.0206 -0.107648,1.65375 -0.192425,3.62931 l -0.154142,3.59192 -25.163565,0.0654 c -13.83996,0.036 -25.241097,-0.0121 -25.335859,-0.1069 z m 50.37507,-3.61455 c 0.0021,-1.79917 0.08875,-3.3906 0.192424,-3.53652 0.103673,-0.14592 0.996678,-0.83041 1.984456,-1.5211 12.000337,-8.391 19.444837,-20.948903 20.896897,-35.250373 1.69917,-16.735273 -5.62816,-33.373388 -19.20184,-43.601463 -6.276535,-4.729511 -14.343516,-8.067765 -22.115501,-9.151769 -3.71985,-0.51883 -10.254863,-0.507485 -13.912689,0.02415 -25.529584,3.71053 -43.813975,27.10452 -41.212251,52.72908 1.453704,14.317634 8.882995,26.849895 20.896897,35.250375 0.987778,0.69069 1.880783,1.37518 1.984456,1.5211 0.103673,0.14592 0.190264,1.73735 0.192424,3.53652 l 0.0039,3.27121 h 25.143435 25.143436 l 0.0039,-3.27121 z m -27.324662,-4.99259 c -0.200939,-0.57027 -0.269722,-6.36148 -0.07555,-6.36094 0.10149,2.5e-4 0.216944,1.41482 0.256566,3.14343 l 0.07204,3.14293 h 1.924242 1.924243 l 0.07204,-3.14293 c 0.03962,-1.72861 0.155076,-3.14318 0.256566,-3.14347 0.10149,-2.6e-4 0.1268,1.47174 0.05624,3.27121 l -0.128282,3.27175 -2.120713,0.0746 c -1.555211,0.0547 -2.151827,-0.0137 -2.237394,-0.25657 z M 29.546729,95.208158 c -0.514692,-0.920352 -0.875338,-1.830935 -0.80144,-2.023516 0.0739,-0.19258 1.185285,-0.956669 2.46974,-1.697972 1.284455,-0.741302 2.396721,-1.447084 2.4717,-1.568403 0.07498,-0.121318 0.259103,-0.220578 0.409163,-0.220578 0.552789,0 -0.376839,0.766621 -2.059365,1.698265 -0.939067,0.519979 -2.023395,1.165562 -2.409619,1.434633 l -0.702228,0.489222 0.61762,1.203585 c 1.237116,2.410835 1.008519,2.36824 3.905807,0.72778 1.406981,-0.796639 2.723976,-1.448416 2.926658,-1.448396 0.202681,2.1e-5 -0.863813,0.692748 -2.369987,1.539394 -1.506172,0.846647 -2.91484,1.539356 -3.130371,1.539356 -0.215751,0 -0.812469,-0.752089 -1.327678,-1.67337 z m 66.775234,0.767385 c -0.816166,-0.48769 -2.02752,-1.176081 -2.691897,-1.529757 -0.664377,-0.353676 -1.01334,-0.643046 -0.77547,-0.643046 0.23787,0 1.551504,0.655138 2.919186,1.455861 2.820162,1.651095 2.598603,1.694355 3.853984,-0.752507 l 0.626384,-1.220891 -1.140583,-0.703351 c -0.627324,-0.386845 -1.856974,-1.140622 -2.732555,-1.675059 -0.875582,-0.534439 -1.528388,-1.035286 -1.450676,-1.112997 0.07771,-0.07771 0.467865,0.0882 0.867014,0.368693 0.39915,0.28049 1.569959,0.992675 2.601802,1.582633 1.03184,0.589957 1.937988,1.233978 2.013648,1.431159 0.20831,0.542857 -1.650074,3.707102 -2.170463,3.69561 -0.240038,-0.0053 -1.104208,-0.408657 -1.920374,-0.896348 z M 33.60236,59.899601 c -0.16117,-0.161169 -1.308883,-0.885472 -2.550473,-1.609559 -1.241594,-0.72409 -2.292838,-1.500335 -2.336103,-1.724986 -0.121104,-0.62884 1.694881,-3.556952 2.202912,-3.551995 0.240186,0.0023 1.647156,0.69507 3.126601,1.539394 1.479445,0.844322 2.535867,1.535132 2.347607,1.535132 -0.188263,0 -1.463797,-0.635 -2.834522,-1.411111 -1.370725,-0.776111 -2.565934,-1.411111 -2.656022,-1.411111 -0.276308,0 -1.999819,3.102738 -1.8543,3.338194 0.07508,0.121481 1.160144,0.806655 2.411255,1.522612 1.251109,0.715954 2.417547,1.4738 2.592081,1.684102 0.369798,0.445578 -0.01604,0.522334 -0.449036,0.08933 z m 61.487688,-0.0654 c 0.163612,-0.197143 1.329456,-0.954032 2.590766,-1.681975 1.261308,-0.727944 2.355306,-1.423886 2.431106,-1.546537 0.13916,-0.225165 -1.568232,-3.340321 -1.830801,-3.340321 -0.07789,0 -1.263121,0.635 -2.633847,1.411111 -1.370725,0.776111 -2.658056,1.411093 -2.860738,1.411073 -0.202681,-2.1e-5 0.863813,-0.692748 2.369987,-1.539394 1.506172,-0.846646 2.914958,-1.539356 3.130638,-1.539356 0.467803,0 2.271041,2.971136 2.158351,3.556257 -0.0433,0.224651 -1.094504,1.000896 -2.336098,1.724986 -1.24159,0.724087 -2.389303,1.44839 -2.550473,1.609559 -0.419536,0.419537 -0.824478,0.363051 -0.468891,-0.0654 z M 62.218732,38.192468 c 0.0415,-1.65824 0.124467,-3.1593 0.18437,-3.335689 0.07507,-0.221043 0.751776,-0.320707 2.177547,-0.320707 1.425772,0 2.102479,0.09966 2.177548,0.320707 0.196108,0.577448 0.264565,6.35068 0.0753,6.350336 -0.10149,-1.85e-4 -0.216944,-1.414654 -0.256566,-3.143266 l -0.07204,-3.142929 h -1.924243 -1.924242 l -0.07204,3.142929 c -0.03962,1.728612 -0.155076,3.143081 -0.256566,3.143266 -0.10149,1.84e-4 -0.150573,-1.356407 -0.109071,-3.014647 z M 57.861836,22.302222 c 0.185207,-0.07411 0.406495,-0.065 0.491752,0.02025 0.08525,0.08525 -0.06628,0.145893 -0.336743,0.134753 -0.298886,-0.01231 -0.359679,-0.07311 -0.155009,-0.155008 z m 13.084849,0 c 0.185207,-0.07411 0.406498,-0.065 0.491752,0.02025 0.08525,0.08525 -0.06628,0.145893 -0.336743,0.134753 -0.298886,-0.01231 -0.359679,-0.07311 -0.155009,-0.155008 z m -10.402062,-0.2591 c 0.24963,-0.06505 0.595994,-0.06077 0.769697,0.0095 0.173702,0.07028 -0.03054,0.123502 -0.453873,0.118274 -0.423333,-0.0052 -0.565455,-0.06273 -0.315824,-0.127781 z m 7.440404,0 c 0.249631,-0.06505 0.595994,-0.06077 0.769697,0.0095 0.173703,0.07028 -0.03054,0.123502 -0.453872,0.118274 -0.423334,-0.0052 -0.565456,-0.06273 -0.315825,-0.127781 z"
         id="path479" /><path
         style="fill:#ad7741;stroke-width:0.256566"
         d="m 62.377045,106.63102 0.02281,-2.18081 h 2.180808 2.180808 l 0.02278,2.18081 0.02278,2.18081 -0.151077,-2.05252 -0.151078,-2.05253 h -1.924243 -1.924242 l -0.151079,2.05253 -0.151076,2.05252 0.02278,-2.18081 z m -0.642827,-6.16623 C 55.817575,99.773136 50.354912,97.042513 46.174051,92.686723 43.807957,90.221632 42.631244,88.511812 41.212456,85.477297 39.522027,81.861799 39.072132,79.654811 39.065474,74.945164 c -0.0049,-3.492069 0.0823,-4.430697 0.584192,-6.285859 2.535264,-9.371169 9.784399,-16.456822 19.207778,-18.774606 3.179316,-0.781989 8.267095,-0.781989 11.446411,0 6.122462,1.505887 11.652001,5.217386 15.22281,10.217751 1.504522,2.106851 3.257512,5.878253 3.97732,8.556855 0.495053,1.842236 0.586037,2.818122 0.586037,6.285859 0,4.710153 -0.446904,6.90841 -2.141179,10.532133 -1.417731,3.032255 -2.59539,4.744274 -4.952046,7.199022 -4.334213,4.514614 -9.552348,7.074873 -15.909221,7.805801 -2.355894,0.27088 -2.903064,0.26911 -5.353358,-0.0173 z m 7.990996,-0.63924 c 8.534419,-1.776505 15.715527,-7.953505 18.702706,-16.087573 1.202346,-3.273988 1.40737,-4.555757 1.406439,-8.792813 -0.001,-4.913194 -0.461923,-7.023827 -2.408841,-11.032324 -3.345829,-6.888716 -9.202664,-11.684657 -16.684347,-13.662186 -2.069957,-0.547121 -3.004928,-0.645016 -6.160522,-0.645016 -3.155593,0 -4.090564,0.0979 -6.160521,0.645016 -7.481683,1.977529 -13.338518,6.77347 -16.684347,13.662186 -1.947528,4.009757 -2.407938,6.119191 -2.407938,11.032324 0,3.473032 0.09049,4.44081 0.587733,6.285858 2.766345,10.264618 11.276335,17.671799 21.818642,18.991158 2.060366,0.25786 5.719264,0.0763 7.990996,-0.39663 z m -8.864767,-4.07667 c -4.472529,-0.876772 -7.885273,-2.669904 -11.081679,-5.822557 -4.158549,-4.101626 -6.230843,-9.044089 -6.234704,-14.869897 -0.0021,-3.268452 0.312291,-5.11732 1.312523,-7.717008 1.867421,-4.853586 5.554685,-8.900558 10.269135,-11.270937 3.310693,-1.664585 5.434644,-2.146852 9.454927,-2.146852 2.828758,0 3.835878,0.106442 5.494421,0.580696 9.423077,2.694491 15.540369,10.741588 15.540369,20.442839 0,5.904476 -2.020441,10.79345 -6.179237,14.952246 -2.645954,2.645954 -6.123353,4.631475 -9.724239,5.552338 -2.308683,0.590404 -6.622109,0.736174 -8.851516,0.299132 z m 8.851516,-0.555698 c 6.119712,-1.565007 11.430731,-6.052158 13.992529,-11.821948 2.206642,-4.969895 2.219211,-11.877379 0.03062,-16.826171 -2.503085,-5.659921 -7.601407,-10.052333 -13.689825,-11.794344 -2.863999,-0.819446 -8.065278,-0.819446 -10.929277,0 -6.088418,1.742011 -11.18674,6.134423 -13.689825,11.794344 -2.18859,4.948792 -2.176021,11.856276 0.03062,16.826171 2.322807,5.231523 6.931285,9.466755 12.324852,11.326646 3.482551,1.200904 8.376636,1.404089 11.930304,0.495302 z m -7.259828,-5.40044 c -0.09932,-0.09932 -0.180576,-1.030866 -0.180576,-2.070108 0,-1.291541 -0.101498,-1.918637 -0.320708,-1.981487 -3.046953,-0.873627 -5.214786,-2.673117 -5.818678,-4.830006 -0.51326,-1.833177 -0.361291,-1.98921 1.937412,-1.98921 1.971371,0 1.971864,1.75e-4 2.919145,1.026263 l 0.947441,1.026263 h 2.570467 c 2.211983,0 2.664747,-0.07416 3.246482,-0.531753 0.834567,-0.65647 0.895961,-1.755112 0.136529,-2.443129 -0.443754,-0.402025 -1.092524,-0.51621 -3.656061,-0.643479 -2.459131,-0.122087 -3.367884,-0.274171 -4.307889,-0.720945 -3.80267,-1.807364 -5.182095,-6.075541 -3.018985,-9.341242 0.838924,-1.266545 2.750392,-2.640097 4.030231,-2.896065 1.137096,-0.22742 1.298417,-0.524053 1.385814,-2.548225 l 0.07708,-1.785264 h 2.180808 2.180809 l 0.07708,1.785264 c 0.0874,2.024172 0.248718,2.320805 1.385814,2.548225 1.275296,0.25506 3.190238,1.627904 4.021728,2.883226 0.760687,1.148426 1.24506,2.920202 0.935336,3.421344 -0.09041,0.146291 -1.041215,0.265982 -2.112898,0.265982 -1.944313,0 -1.950553,-0.0023 -2.895951,-1.026263 l -0.947441,-1.026262 h -2.570467 c -2.211983,0 -2.664747,0.07416 -3.246482,0.531752 -0.834403,0.656342 -0.895932,1.755028 -0.136824,2.443129 0.445442,0.403775 1.081117,0.513678 3.656061,0.632096 3.637352,0.167278 4.92115,0.614823 6.535551,2.278354 1.646882,1.696997 2.204158,3.981029 1.53024,6.271771 -0.482636,1.64054 -2.784159,3.80843 -4.564073,4.299068 l -1.411111,0.388979 -0.128283,2.032475 -0.128282,2.032477 -2.064374,0.07367 c -1.135408,0.04052 -2.145635,-0.0076 -2.244949,-0.106903 z m 4.23439,-2.056472 c 0.08239,-2.156616 0.0156,-2.068753 2.127458,-2.798228 1.611471,-0.556627 3.477581,-2.398619 3.91747,-3.866839 0.720378,-2.404411 0.216819,-4.315024 -1.62589,-6.168976 -1.667936,-1.678111 -3.076933,-2.137872 -6.551796,-2.137872 -2.3146,0 -2.55777,-0.04911 -3.288785,-0.66422 -1.172564,-0.986649 -1.055934,-2.387441 0.255229,-3.065472 0.89865,-0.46471 5.045174,-0.512144 6.018112,-0.06884 0.370001,0.168582 0.840217,0.6304 1.044925,1.026263 0.357045,0.690449 0.449639,0.719746 2.274706,0.719746 1.084452,0 1.976082,-0.119036 2.073608,-0.276834 0.0941,-0.152259 0.02071,-0.816123 -0.163081,-1.475253 -0.446619,-1.60168 -2.47318,-3.645118 -4.082781,-4.116786 -1.939464,-0.568329 -1.917007,-0.538126 -1.999175,-2.6889 l -0.07493,-1.961419 h -2.030941 -2.03094 l -0.07494,1.986093 -0.07493,1.98609 -1.539394,0.511679 c -2.747248,0.913153 -4.746464,3.455242 -4.746464,6.03533 0,2.255664 1.43103,4.417945 3.684834,5.567768 1.115386,0.569037 1.732668,0.687896 4.012136,0.772534 3.289956,0.122164 3.724881,0.206802 4.368143,0.850064 0.770177,0.770177 0.652667,1.877481 -0.282779,2.664606 -0.734961,0.618429 -0.967643,0.66422 -3.375078,0.66422 h -2.585697 l -0.97626,-1.026262 c -0.957054,-1.006071 -1.011498,-1.026263 -2.767356,-1.026263 -1.004734,0 -1.86621,0.12154 -1.962189,0.276834 -0.0941,0.152259 -0.02188,0.80974 0.160472,1.461067 0.44793,1.599844 2.25101,3.432331 3.957107,4.021644 2.111869,0.729475 2.045067,0.641612 2.127458,2.798228 l 0.07494,1.961419 h 2.03094 2.030941 z m -28.789656,5.086022 c 0.916698,-0.533721 1.696543,-1.137597 1.732985,-1.341946 0.08746,-0.490428 -1.396199,-3.051171 -1.874048,-3.234539 -0.205429,-0.07883 -1.145663,0.340812 -2.089412,0.93254 -0.943746,0.591727 -1.568822,0.898646 -1.389056,0.682041 0.41832,-0.504044 2.986675,-1.958658 3.458328,-1.958658 0.423107,0 2.21468,2.902704 2.21468,3.588224 0,0.314381 -0.550944,0.780768 -1.645222,1.392724 -0.904874,0.506034 -1.74192,0.917802 -1.860102,0.915038 -0.118184,-0.0028 0.535148,-0.441703 1.451847,-0.975424 z m 52.91762,0.01467 c -0.986865,-0.579058 -1.603536,-1.111658 -1.603536,-1.384928 0,-0.711272 1.780048,-3.550307 2.22601,-3.550307 0.453377,0 3.067658,1.435957 3.300666,1.81297 0.0823,0.133165 -0.557294,-0.172202 -1.421322,-0.678593 -0.864026,-0.506394 -1.731465,-0.859123 -1.92764,-0.783842 -0.388137,0.148942 -1.914834,2.665687 -1.918742,3.163026 -0.0013,0.168569 0.776912,0.774074 1.729412,1.345567 0.9525,0.571492 1.616364,1.034111 1.475253,1.028043 -0.141111,-0.0061 -0.978157,-0.43444 -1.860101,-0.951936 z M 35.652871,60.966417 c -2.13241,-1.352827 -2.061587,-1.533326 0.08899,-0.226804 0.93089,0.565535 1.841013,0.971268 2.022495,0.901625 0.484698,-0.185994 2.000103,-2.946867 1.842677,-3.357112 -0.0741,-0.193097 -0.86421,-0.764533 -1.755807,-1.269857 -0.891596,-0.505324 -1.516724,-0.92055 -1.389175,-0.922725 0.572149,-0.0097 3.488293,1.853551 3.488293,2.228893 0,0.750352 -1.796991,3.668294 -2.257506,3.665723 -0.240038,-0.0013 -1.158025,-0.460225 -2.039969,-1.019743 z m 54.468618,-0.606011 c -0.500795,-0.895504 -0.910536,-1.809206 -0.910536,-2.030442 0,-0.371179 3.244802,-2.41845 3.472386,-2.190866 0.05406,0.05406 -0.59805,0.481104 -1.449135,0.94899 -0.851082,0.467886 -1.607553,1.007395 -1.681043,1.198911 -0.156618,0.408142 1.36097,3.168968 1.84378,3.354239 0.181482,0.06964 1.108118,-0.346122 2.059191,-0.923918 0.951074,-0.577796 1.58787,-0.880218 1.415104,-0.672048 -0.416373,0.501699 -2.98537,1.943326 -3.463031,1.943326 -0.206897,0 -0.78592,-0.732685 -1.286716,-1.628192 z M 62.452135,45.406883 c -0.09932,-0.09932 -0.159405,-1.113833 -0.133527,-2.254481 l 0.04705,-2.073906 0.145375,2.052525 0.145375,2.052526 h 1.924242 1.924243 l 0.151079,-2.052526 0.151076,-2.052525 -0.02278,2.180808 -0.02278,2.180808 -2.064374,0.07367 c -1.135408,0.04052 -2.145635,-0.0076 -2.244949,-0.106902 z"
         id="path477" /><path
         style="fill:#8e653d;stroke-width:0.256566"
         d="m 62.696049,104.77092 c 0.06541,-0.10583 0.913479,-0.19242 1.8846,-0.19242 0.971122,0 1.819192,0.0866 1.884601,0.19242 0.06541,0.10584 -0.782661,0.19243 -1.884601,0.19243 -1.101939,0 -1.950009,-0.0866 -1.8846,-0.19243 z m 1.179045,-4.48124 c 0.388055,-0.0588 1.023056,-0.0588 1.411111,0 0.388056,0.0588 0.07056,0.10688 -0.705556,0.10688 -0.776111,0 -1.093611,-0.0481 -0.705555,-0.10688 z m -2.81734,-0.2506 c 0.249631,-0.06505 0.595994,-0.06077 0.769697,0.01 0.173703,0.0703 -0.03054,0.12351 -0.453872,0.11828 -0.423334,-0.005 -0.565456,-0.0627 -0.315825,-0.12778 z m 6.414142,0 c 0.24963,-0.06505 0.595994,-0.06077 0.769697,0.01 0.173702,0.0703 -0.03054,0.12351 -0.453873,0.11828 -0.423333,-0.005 -0.565455,-0.0627 -0.315824,-0.12778 z m -7.8141,-0.254027 c 0.185207,-0.07411 0.406495,-0.065 0.491752,0.02024 0.08525,0.08526 -0.06628,0.145894 -0.336743,0.134754 -0.298886,-0.01232 -0.359679,-0.07311 -0.155009,-0.155007 z m 9.492929,0 c 0.185207,-0.07411 0.406498,-0.065 0.491752,0.02024 0.08525,0.08526 -0.06628,0.145894 -0.336742,0.134754 -0.298887,-0.01232 -0.35968,-0.07311 -0.15501,-0.155007 z M 58.374968,99.528488 c 0.185207,-0.07411 0.406494,-0.065 0.491751,0.02024 0.08525,0.08525 -0.06628,0.145893 -0.336742,0.134753 -0.298886,-0.01232 -0.35968,-0.07311 -0.155009,-0.155007 z m 12.058586,0 c 0.185207,-0.07411 0.406497,-0.065 0.491751,0.02024 0.08526,0.08525 -0.06628,0.145893 -0.336742,0.134753 -0.298886,-0.01232 -0.359679,-0.07311 -0.155009,-0.155007 z m 4.431102,-1.459785 c 0.264019,-0.236238 1.77458,-0.930412 1.77458,-0.815504 0,0.147777 -1.422354,0.911157 -1.697698,0.911157 -0.101082,0 -0.135677,-0.04304 -0.07688,-0.09565 z M 52.891808,97.508787 c -0.469595,-0.37622 -0.461408,-0.381562 0.143387,-0.09353 0.785355,0.374024 0.930907,0.492532 0.60493,0.492532 -0.13766,0 -0.474403,-0.17955 -0.748317,-0.399004 z m -1.79596,-1.026262 c -0.478243,-0.383153 -0.475098,-0.387889 0.07925,-0.119255 0.3175,0.15386 0.577272,0.33341 0.577272,0.399001 0,0.196329 -0.133057,0.139633 -0.656518,-0.279746 z M 77.408933,96.7713 c 0,-0.07056 0.230909,-0.251863 0.513131,-0.402903 0.282222,-0.151041 0.513131,-0.216893 0.513131,-0.146338 0,0.07056 -0.230909,0.251863 -0.513131,0.402903 -0.282222,0.15104 -0.513131,0.216893 -0.513131,0.146338 z M 49.923679,95.662841 c -0.319134,-0.406929 -0.310059,-0.416003 0.09687,-0.09687 0.246945,0.193669 0.44899,0.395714 0.44899,0.44899 0,0.211164 -0.210689,0.07525 -0.545859,-0.352121 z m 11.647206,0.271192 c 0.249631,-0.06505 0.595995,-0.06077 0.769697,0.0095 0.173703,0.07028 -0.03054,0.123503 -0.453872,0.118274 -0.423333,-0.0052 -0.565455,-0.06273 -0.315825,-0.12778 z m 5.387879,0 c 0.249631,-0.06505 0.595995,-0.06077 0.769697,0.0095 0.173703,0.07028 -0.03054,0.123503 -0.453872,0.118274 -0.423333,-0.0052 -0.565455,-0.06273 -0.315825,-0.12778 z m 11.732997,0.08093 c 0,-0.05328 0.202045,-0.255321 0.44899,-0.44899 0.406928,-0.319134 0.416003,-0.31006 0.09687,0.09687 -0.33517,0.427374 -0.545859,0.563285 -0.545859,0.352121 z m -18.520834,-0.33496 c 0.185207,-0.07411 0.406495,-0.065 0.491752,0.02024 0.08525,0.08525 -0.06628,0.145893 -0.336743,0.134753 -0.298886,-0.01232 -0.359679,-0.07311 -0.155009,-0.155007 z m 8.466667,0 c 0.185207,-0.07411 0.406498,-0.065 0.491752,0.02024 0.08525,0.08525 -0.06628,0.145893 -0.336743,0.134753 -0.298886,-0.01232 -0.359679,-0.07311 -0.155009,-0.155007 z M 48.897416,94.893144 c -0.319134,-0.406929 -0.310059,-0.416003 0.09687,-0.09687 0.246945,0.193669 0.44899,0.395714 0.44899,0.44899 0,0.211164 -0.210689,0.07525 -0.545859,-0.352121 z m 9.220986,0.273727 c 0.185207,-0.07411 0.406495,-0.065 0.491752,0.02024 0.08525,0.08526 -0.06628,0.145894 -0.336743,0.134754 -0.298886,-0.01232 -0.359679,-0.07311 -0.155009,-0.155007 z m 12.571717,0 c 0.185207,-0.07411 0.406498,-0.065 0.491752,0.02024 0.08525,0.08526 -0.06628,0.145894 -0.336742,0.134754 -0.298887,-0.01232 -0.35968,-0.07311 -0.15501,-0.155007 z m 9.027905,0.07839 c 0,-0.05328 0.202045,-0.255321 0.44899,-0.44899 0.406928,-0.319134 0.416003,-0.31006 0.09687,0.09687 -0.33517,0.427374 -0.545859,0.563285 -0.545859,0.352121 z m -7.953536,-0.416262 c 0.211667,-0.136791 0.500303,-0.248707 0.641414,-0.248707 0.141111,0 0.08338,0.111916 -0.128283,0.248707 -0.211666,0.13679 -0.500303,0.248707 -0.641414,0.248707 -0.141111,0 -0.08338,-0.111917 0.128283,-0.248707 z m -25.150847,-1.98838 -1.660265,-1.731819 1.731818,1.660265 c 1.608588,1.542127 1.849103,1.803372 1.660265,1.803372 -0.03936,0 -0.818673,-0.779318 -1.731818,-1.731818 z m 35.670039,0.06414 c 0.909069,-0.917222 1.71058,-1.667677 1.781136,-1.667677 0.07056,0 -0.615501,0.750455 -1.52457,1.667677 -0.909069,0.917222 -1.71058,1.667677 -1.781135,1.667677 -0.07056,0 0.615501,-0.750455 1.524569,-1.667677 z m -27.339347,1.012108 c -0.469595,-0.37622 -0.461408,-0.381562 0.143387,-0.09353 0.785355,0.374024 0.930907,0.492531 0.60493,0.492531 -0.13766,0 -0.474402,-0.17955 -0.748317,-0.399003 z m 18.380929,0.305472 c 0.0588,-0.05144 0.395539,-0.230991 0.748317,-0.399 0.604795,-0.288034 0.612982,-0.282692 0.143387,0.09353 -0.408709,0.327445 -1.243794,0.61352 -0.891704,0.305472 z m -36.71027,-0.786394 c 0,-0.07056 0.230909,-0.251863 0.513131,-0.402903 0.282223,-0.15104 0.513132,-0.216893 0.513132,-0.146337 0,0.07055 -0.230909,0.251862 -0.513132,0.402903 -0.282222,0.15104 -0.513131,0.216893 -0.513131,0.146337 z M 91.889789,93.14717 c -0.478244,-0.383153 -0.475098,-0.387889 0.07925,-0.119254 0.3175,0.15386 0.577273,0.333409 0.577273,0.399 0,0.19633 -0.133058,0.139634 -0.656518,-0.279746 z M 53.148373,92.890605 c -0.478243,-0.383152 -0.475098,-0.387888 0.07925,-0.119254 0.3175,0.15386 0.577273,0.33341 0.577273,0.399001 0,0.196329 -0.133058,0.139633 -0.656519,-0.279747 z m 22.208034,0.288775 c 0,-0.07055 0.230909,-0.251863 0.513132,-0.402903 0.282222,-0.15104 0.513131,-0.216893 0.513131,-0.146337 0,0.07055 -0.230909,0.251863 -0.513131,0.402903 -0.282223,0.15104 -0.513132,0.216893 -0.513132,0.146337 z M 38.410952,92.430162 c 0,-0.05929 0.302852,-0.306236 0.673002,-0.54877 0.370153,-0.242532 0.594632,-0.31416 0.498843,-0.159169 -0.183049,0.296177 -1.171845,0.893534 -1.171845,0.707939 z m 13.565252,-0.35924 c -0.319134,-0.406929 -0.310059,-0.416004 0.09687,-0.09687 0.427375,0.335169 0.563285,0.545859 0.352121,0.545859 -0.05328,0 -0.255321,-0.202046 -0.44899,-0.44899 z m 24.663032,0.352121 c 0,-0.05328 0.202045,-0.255322 0.44899,-0.44899 0.406928,-0.319135 0.416003,-0.31006 0.09687,0.09687 -0.33517,0.427374 -0.545859,0.563284 -0.545859,0.352121 z m -26.183509,-1.63495 -0.884169,-0.962121 0.962121,0.884169 c 0.895522,0.822963 1.080088,1.040074 0.884169,1.040074 -0.04287,0 -0.475829,-0.432955 -0.962121,-0.962122 z m 27.209771,0.88184 c 0,-0.04416 0.375228,-0.419383 0.833839,-0.833839 l 0.833838,-0.753556 -0.753556,0.833838 c -0.702421,0.777256 -0.914121,0.951769 -0.914121,0.753557 z M 44.279235,90.274962 c -0.319135,-0.406928 -0.31006,-0.416003 0.09687,-0.09687 0.427375,0.33517 0.563285,0.545859 0.352121,0.545859 -0.05327,0 -0.255321,-0.202045 -0.448989,-0.44899 z m 40.056971,0.352121 c 0,-0.05328 0.202045,-0.255321 0.44899,-0.44899 0.406928,-0.319134 0.416003,-0.310059 0.09687,0.09687 -0.335169,0.427374 -0.545858,0.563285 -0.545858,0.352121 z M 38.667517,89.697689 c -0.15104,-0.282222 -0.216892,-0.513131 -0.146337,-0.513131 0.07056,0 0.251863,0.230909 0.402903,0.513131 0.15104,0.282223 0.216893,0.513132 0.146337,0.513132 -0.07055,0 -0.251862,-0.230909 -0.402903,-0.513132 z m 51.569699,0 c 0.15104,-0.282222 0.332347,-0.513131 0.402903,-0.513131 0.07055,0 0.0047,0.230909 -0.146337,0.513131 -0.151041,0.282223 -0.332348,0.513132 -0.402903,0.513132 -0.07056,0 -0.0047,-0.230909 0.146337,-0.513132 z m 3.705098,-0.142437 c -0.478244,-0.383153 -0.475098,-0.387889 0.07925,-0.119255 0.3175,0.15386 0.577273,0.33341 0.577273,0.399001 0,0.196329 -0.133057,0.139633 -0.656518,-0.279746 z m -45.413159,-0.691401 -0.753556,-0.833839 0.833838,0.753557 c 0.777255,0.70242 0.951769,0.91412 0.753556,0.91412 -0.04416,0 -0.419382,-0.375227 -0.833838,-0.833838 z m 31.188869,0.753556 c 0,-0.04416 0.375227,-0.419382 0.833838,-0.833838 l 0.833838,-0.753557 -0.753556,0.833839 c -0.70242,0.777255 -0.91412,0.951769 -0.91412,0.753556 z M 36.728171,88.547313 c 0.648754,-0.506753 1.026668,-0.491221 1.458943,0.05997 0.320417,0.408566 0.311014,0.416719 -0.104466,0.09056 -0.363341,-0.285227 -0.599132,-0.297475 -1.154546,-0.05997 -0.648387,0.277257 -0.662586,0.270825 -0.199931,-0.09056 z m 54.246014,0.05997 c 0.432275,-0.551193 0.810189,-0.566725 1.458943,-0.05997 0.462655,0.361388 0.448456,0.36782 -0.199931,0.09056 -0.555414,-0.237503 -0.791205,-0.225255 -1.154546,0.05997 -0.41548,0.326156 -0.424883,0.318003 -0.104466,-0.09056 z M 42.516002,87.645164 c -0.15104,-0.282222 -0.216893,-0.513131 -0.146337,-0.513131 0.07056,0 0.251863,0.230909 0.402903,0.513131 0.15104,0.282222 0.216893,0.513131 0.146337,0.513131 -0.07055,0 -0.251862,-0.230909 -0.402903,-0.513131 z m 43.872729,0 c 0.15104,-0.282222 0.332347,-0.513131 0.402903,-0.513131 0.07056,0 0.0047,0.230909 -0.146337,0.513131 -0.151041,0.282222 -0.332348,0.513131 -0.402903,0.513131 -0.07056,0 -0.0047,-0.230909 0.146337,-0.513131 z M 47.358022,87.45274 c -0.319134,-0.406929 -0.310059,-0.416004 0.09687,-0.09687 0.246945,0.193668 0.44899,0.395714 0.44899,0.44899 0,0.211164 -0.210689,0.07525 -0.545859,-0.352121 z m 33.899396,0.352121 c 0,-0.05328 0.202045,-0.255322 0.44899,-0.44899 0.406928,-0.319135 0.416003,-0.31006 0.09687,0.09687 -0.33517,0.427374 -0.545859,0.563285 -0.545859,0.352121 z M 46.107922,85.592639 c -0.151041,-0.282223 -0.216893,-0.513132 -0.146338,-0.513132 0.07056,0 0.251863,0.230909 0.402903,0.513132 0.151041,0.282222 0.216893,0.513131 0.146338,0.513131 -0.07056,0 -0.251863,-0.230909 -0.402903,-0.513131 z m 36.68889,0 c 0.15104,-0.282223 0.332347,-0.513132 0.402903,-0.513132 0.07055,0 0.0047,0.230909 -0.146338,0.513132 -0.15104,0.282222 -0.332347,0.513131 -0.402903,0.513131 -0.07055,0 -0.0047,-0.230909 0.146338,-0.513131 z M 41.136587,84.941306 c -0.24758,-0.645183 -0.174544,-0.811659 0.127906,-0.291546 0.149755,0.257528 0.218235,0.52228 0.152177,0.588338 -0.06606,0.06606 -0.192096,-0.0675 -0.280083,-0.296792 z m 46.542831,0.266484 c 0,-0.141111 0.111916,-0.429747 0.248707,-0.641414 0.13679,-0.211667 0.248707,-0.269394 0.248707,-0.128283 0,0.141111 -0.111917,0.429748 -0.248707,0.641414 -0.136791,0.211667 -0.248707,0.269394 -0.248707,0.128283 z m -29.783287,-1.860101 -0.884169,-0.962121 0.962122,0.884169 c 0.529166,0.486292 0.962121,0.919246 0.962121,0.962121 0,0.195919 -0.217111,0.01137 -1.040074,-0.884169 z m 13.09866,0.06414 c 0.478695,-0.493889 0.928083,-0.89798 0.998638,-0.89798 0.07056,0 -0.263377,0.404091 -0.742072,0.89798 -0.478695,0.493888 -0.928083,0.897979 -0.998638,0.897979 -0.07056,0 0.263377,-0.404091 0.742072,-0.897979 z m 17.723287,-1.047643 c 0.01232,-0.298886 0.07311,-0.359679 0.155006,-0.155009 0.07411,0.185207 0.065,0.406495 -0.02024,0.491752 -0.08525,0.08525 -0.145893,-0.06628 -0.134753,-0.336743 z M 56.744847,81.98365 c -0.09301,-0.150499 -0.11409,-0.328661 -0.04684,-0.395914 0.06725,-0.06725 0.190643,0.05588 0.274204,0.273635 0.173485,0.452097 0.02563,0.531619 -0.227368,0.122279 z m 15.420984,-0.05814 c 0.09635,-0.25303 0.23981,-0.395424 0.318804,-0.31643 0.07899,0.07899 1.64e-4,0.286017 -0.175178,0.460056 -0.25339,0.251501 -0.282859,0.222032 -0.143626,-0.143626 z m -8.675586,-0.625784 c 0.599723,-0.05402 1.581086,-0.05402 2.180809,0 0.599722,0.05402 0.10904,0.09821 -1.090405,0.09821 -1.199444,0 -1.690126,-0.0442 -1.090404,-0.09821 z M 44.075652,80.824794 c 0.01232,-0.298886 0.07311,-0.359679 0.155007,-0.155009 0.07411,0.185207 0.065,0.406495 -0.02024,0.491752 -0.08526,0.08525 -0.145894,-0.06628 -0.134754,-0.336743 z m 40.793941,0 c 0.01232,-0.298886 0.07311,-0.359679 0.155007,-0.155009 0.07411,0.185207 0.065,0.406495 -0.02024,0.491752 -0.08526,0.08525 -0.145894,-0.06628 -0.134754,-0.336743 z m -24.033522,-0.42761 -0.488755,-0.577273 0.577273,0.488755 c 0.542492,0.459309 0.694071,0.665791 0.488755,0.665791 -0.04869,0 -0.308459,-0.259773 -0.577273,-0.577273 z m 7.208215,0.06414 c 0.255409,-0.282222 0.522106,-0.513131 0.592662,-0.513131 0.07055,0 -0.08069,0.230909 -0.336096,0.513131 -0.255409,0.282223 -0.522106,0.513132 -0.592662,0.513132 -0.07055,0 0.08069,-0.230909 0.336096,-0.513132 z m 21.186923,-0.149662 c 0.01231,-0.298886 0.07311,-0.359679 0.155007,-0.155009 0.07411,0.185207 0.065,0.406495 -0.02024,0.491751 -0.08525,0.08526 -0.145894,-0.06628 -0.134754,-0.336742 z M 56.194893,79.968291 c 0.02605,-0.341725 0.220554,-0.668015 0.432221,-0.725088 0.254282,-0.06856 0.286114,-0.03186 0.09382,0.108186 -0.160064,0.116576 -0.354564,0.442866 -0.432221,0.725088 -0.111334,0.404604 -0.131177,0.381723 -0.09382,-0.108186 z m 16.67274,-0.789794 c 0,-0.776111 0.0481,-1.093611 0.106883,-0.705555 0.05879,0.388055 0.05879,1.023055 0,1.411111 -0.05878,0.388055 -0.106883,0.07055 -0.106883,-0.705556 z m -29.048546,0.620035 c 0.01231,-0.298887 0.0731,-0.35968 0.155006,-0.15501 0.07411,0.185207 0.065,0.406495 -0.02024,0.491752 -0.08526,0.08525 -0.145893,-0.06628 -0.134753,-0.336742 z m 41.307071,0 c 0.01232,-0.298887 0.07311,-0.35968 0.155007,-0.15501 0.07411,0.185207 0.065,0.406495 -0.02024,0.491752 -0.08525,0.08525 -0.145893,-0.06628 -0.134753,-0.336742 z M 39.477724,79.178497 c 0,-0.352778 0.05823,-0.497096 0.129409,-0.320707 0.07117,0.176389 0.07117,0.465025 0,0.641414 -0.07117,0.176389 -0.129409,0.03207 -0.129409,-0.320707 z m 20.484744,0.256566 c -0.231241,-0.149439 -0.262885,-0.250277 -0.07928,-0.252638 0.16806,-0.0021 0.37692,0.111527 0.464132,0.252638 0.196863,0.318534 0.108045,0.318534 -0.384848,0 z m 8.763741,-0.256566 c 0,-0.352778 0.05824,-0.497096 0.129409,-0.320707 0.07117,0.176389 0.07117,0.465025 0,0.641414 -0.07117,0.176389 -0.129409,0.03207 -0.129409,-0.320707 z m 20.781819,0 c 0,-0.352778 0.05824,-0.497096 0.129409,-0.320707 0.07117,0.176389 0.07117,0.465025 0,0.641414 -0.07117,0.176389 -0.129409,0.03207 -0.129409,-0.320707 z M 43.582774,78.665366 c 0,-0.352778 0.05823,-0.497096 0.129409,-0.320707 0.07117,0.176389 0.07117,0.465025 0,0.641414 -0.07117,0.176389 -0.129409,0.03207 -0.129409,-0.320707 z m 41.820203,0 c 0,-0.352778 0.05824,-0.497096 0.12941,-0.320707 0.07117,0.176389 0.07117,0.465025 0,0.641414 -0.07117,0.176389 -0.12941,0.03207 -0.12941,-0.320707 z m -46.15245,-1.79596 c 0,-0.635 0.05004,-0.894773 0.111188,-0.577273 0.06116,0.3175 0.06116,0.837046 0,1.154546 -0.06115,0.3175 -0.111188,0.05773 -0.111188,-0.577273 z m 50.543436,0 c 0,-0.635 0.05003,-0.894773 0.111188,-0.577273 0.06115,0.3175 0.06115,0.837046 0,1.154546 -0.06115,0.3175 -0.111188,0.05773 -0.111188,-0.577273 z m -22.391091,0.513131 c -0.23124,-0.149439 -0.262885,-0.250277 -0.07928,-0.252637 0.168061,-0.0021 0.376921,0.111526 0.464132,0.252637 0.196863,0.318534 0.108045,0.318534 -0.384848,0 z M 43.379405,74.945164 c 7.7e-4,-1.411112 0.04375,-1.955652 0.09574,-1.210087 0.05199,0.745564 0.05145,1.90011 -0.0013,2.565656 -0.05266,0.665547 -0.0952,0.05554 -0.09453,-1.355569 z m 42.333334,0 c 7.7e-4,-1.411112 0.04375,-1.955652 0.09574,-1.210087 0.05199,0.745564 0.05145,1.90011 -0.0013,2.565656 -0.05266,0.665547 -0.0952,0.05554 -0.09453,-1.355569 z m -22.470459,1.99136 c 0.745564,-0.05199 1.90011,-0.05145 2.565656,0.0013 0.665547,0.05266 0.05554,0.0952 -1.355569,0.09453 -1.411111,-7.7e-4 -1.955652,-0.04375 -1.210087,-0.09574 z m -2.301656,-0.24238 c 0.185207,-0.07411 0.406495,-0.065 0.491752,0.02024 0.08525,0.08525 -0.06628,0.145893 -0.336743,0.134753 -0.298886,-0.01232 -0.359679,-0.07311 -0.155009,-0.155007 z m 11.225207,-0.262662 c -0.139233,-0.365658 -0.109764,-0.395127 0.143626,-0.143626 0.175342,0.174039 0.254172,0.381062 0.175178,0.460056 -0.07899,0.07899 -0.222456,-0.0634 -0.318804,-0.31643 z m -14.2697,-1.55046 -0.884169,-0.962121 0.962122,0.884169 c 0.895522,0.822962 1.080087,1.040073 0.884169,1.040073 -0.04287,0 -0.47583,-0.432954 -0.962122,-0.962121 z m 13.084849,0 -0.884169,-0.962121 0.962122,0.884169 c 0.529166,0.486292 0.962121,0.919246 0.962121,0.962121 0,0.195919 -0.217111,0.01137 -1.040074,-0.884169 z M 39.250527,73.020921 c 0,-0.635 0.05004,-0.894773 0.111188,-0.577273 0.06116,0.3175 0.06116,0.837046 0,1.154546 -0.06115,0.3175 -0.111188,0.05773 -0.111188,-0.577273 z m 29.948304,0.641414 c -0.352777,-0.201665 -0.519163,-0.370758 -0.369744,-0.375756 0.149419,-0.005 0.495782,0.160418 0.769697,0.367598 0.633455,0.479121 0.431128,0.483249 -0.399953,0.0082 z m 20.595132,-0.641414 c 0,-0.635 0.05003,-0.894773 0.111188,-0.577273 0.06115,0.3175 0.06115,0.837046 0,1.154546 -0.06115,0.3175 -0.111188,0.05773 -0.111188,-0.577273 z m -33.049116,0.496062 c -0.09301,-0.150499 -0.11409,-0.32866 -0.04684,-0.395914 0.06725,-0.06725 0.190643,0.05588 0.274204,0.273635 0.173485,0.452097 0.02563,0.531619 -0.227368,0.122279 z m 7.010564,-0.68551 c 0.745565,-0.05199 1.90011,-0.05145 2.565657,0.0013 0.665547,0.05266 0.05554,0.0952 -1.35557,0.09453 -1.411111,-7.7e-4 -1.955651,-0.04375 -1.210087,-0.09574 z m -2.91934,-0.900956 -0.488755,-0.577273 0.577273,0.488755 c 0.542492,0.459309 0.694071,0.665791 0.488755,0.665791 -0.04869,0 -0.308459,-0.259773 -0.577273,-0.577273 z M 56.190865,70.71183 c 0,-0.776111 0.0481,-1.093611 0.106883,-0.705555 0.05879,0.388055 0.05879,1.023055 0,1.411111 -0.05879,0.388055 -0.106883,0.07056 -0.106883,-0.705556 z m -12.608091,0.513131 c 0,-0.352777 0.05823,-0.497095 0.129409,-0.320707 0.07117,0.176389 0.07117,0.465026 0,0.641415 -0.07117,0.176388 -0.129409,0.03207 -0.129409,-0.320708 z m 41.820203,0 c 0,-0.352777 0.05824,-0.497095 0.12941,-0.320707 0.07117,0.176389 0.07117,0.465026 0,0.641415 -0.07117,0.176388 -0.12941,0.03207 -0.12941,-0.320708 z M 39.477724,70.71183 c 0,-0.352778 0.05823,-0.497096 0.129409,-0.320707 0.07117,0.176389 0.07117,0.465025 0,0.641414 -0.07117,0.176389 -0.129409,0.03207 -0.129409,-0.320707 z m 20.781818,0 c 0,-0.352778 0.05824,-0.497096 0.12941,-0.320707 0.07117,0.176389 0.07117,0.465025 0,0.641414 -0.07117,0.176389 -0.12941,0.03207 -0.12941,-0.320707 z m 29.248486,0 c 0,-0.352778 0.05824,-0.497096 0.129409,-0.320707 0.07117,0.176389 0.07117,0.465025 0,0.641414 -0.07117,0.176389 -0.129409,0.03207 -0.129409,-0.320707 z M 68.85919,70.52981 c -0.06942,-0.111555 0.777635,-0.16546 1.882348,-0.119788 1.862164,0.07699 2.017216,0.04397 2.12717,-0.452923 0.106167,-0.479786 0.115021,-0.475045 0.08446,0.04524 -0.03191,0.543386 -0.162122,0.586058 -2.000948,0.655751 -1.081748,0.041 -2.023613,-0.01673 -2.093032,-0.128282 z m 16.266968,-0.480774 c 0.01232,-0.298886 0.07311,-0.359679 0.155007,-0.155009 0.07411,0.185207 0.065,0.406495 -0.02024,0.491752 -0.08525,0.08525 -0.145893,-0.06628 -0.134753,-0.336743 z m -0.256565,-1.026262 c 0.01232,-0.298886 0.07311,-0.35968 0.155007,-0.15501 0.07411,0.185208 0.065,0.406495 -0.02024,0.491752 -0.08526,0.08525 -0.145894,-0.06628 -0.134754,-0.336742 z m -23.43615,-0.138741 c 0.174039,-0.175342 0.381062,-0.254172 0.460056,-0.175178 0.07899,0.07899 -0.0634,0.222456 -0.31643,0.318804 -0.365658,0.139233 -0.395127,0.109764 -0.143626,-0.143626 z m 5.969429,0.03184 c -0.23124,-0.14944 -0.262885,-0.250278 -0.07928,-0.252638 0.168061,-0.0021 0.376921,0.111526 0.464132,0.252638 0.196863,0.318533 0.108045,0.318533 -0.384848,0 z m -4.040909,-0.445152 c 0.670277,-0.05285 1.767096,-0.05285 2.437373,0 0.670278,0.05285 0.121869,0.09609 -1.218687,0.09609 -1.340555,0 -1.888964,-0.04324 -1.218686,-0.09609 z m -6.734849,-0.309403 c 0,-0.132783 0.114133,-0.311963 0.253628,-0.398174 0.145437,-0.08989 0.188447,0.01311 0.100833,0.241423 -0.170563,0.444479 -0.354461,0.525803 -0.354461,0.156751 z m 15.538717,-0.196501 c -0.139233,-0.365657 -0.109764,-0.395127 0.143626,-0.143625 0.175342,0.174038 0.254172,0.381061 0.175178,0.460055 -0.07899,0.07899 -0.222456,-0.0634 -0.318804,-0.31643 z m -14.255889,-1.48632 c 0.478695,-0.493889 0.928083,-0.89798 0.998638,-0.89798 0.07056,0 -0.263377,0.404091 -0.742072,0.89798 -0.478695,0.493889 -0.928083,0.89798 -0.998638,0.89798 -0.07056,0 0.263377,-0.404091 0.742072,-0.89798 z m 13.071038,-0.06414 -0.884169,-0.962121 0.962122,0.884169 c 0.529166,0.486292 0.962121,0.919247 0.962121,0.962121 0,0.195919 -0.217111,0.01137 -1.040074,-0.884169 z M 59.380918,65.292114 c 0.174039,-0.175342 0.381061,-0.254172 0.460055,-0.175178 0.07899,0.07899 -0.0634,0.222455 -0.31643,0.318803 -0.365657,0.139234 -0.395126,0.109764 -0.143625,-0.143625 z m 10.074479,0.03184 c -0.23124,-0.149439 -0.262885,-0.250277 -0.07928,-0.252637 0.168061,-0.0021 0.376921,0.111526 0.464133,0.252637 0.196862,0.318534 0.108045,0.318534 -0.384849,0 z M 60.940624,64.63556 c 0.185207,-0.07411 0.406495,-0.065 0.491752,0.02024 0.08525,0.08526 -0.06628,0.145894 -0.336743,0.134754 -0.298886,-0.01232 -0.359679,-0.07311 -0.155009,-0.155007 z m 6.927273,0 c 0.185207,-0.07411 0.406498,-0.065 0.491752,0.02024 0.08525,0.08526 -0.06628,0.145894 -0.336743,0.134754 -0.298886,-0.01232 -0.359679,-0.07311 -0.155009,-0.155007 z m -6.10947,-0.182136 c 0,-0.05546 0.179178,-0.16959 0.398175,-0.253628 0.228323,-0.08761 0.331308,-0.0446 0.241423,0.100833 -0.150671,0.243792 -0.639598,0.36059 -0.639598,0.152795 z m -13.59798,-3.106238 c 0.331419,-0.352777 0.660305,-0.641414 0.730861,-0.641414 0.07055,0 -0.142877,0.288637 -0.474295,0.641414 -0.331419,0.352778 -0.660305,0.641415 -0.730861,0.641415 -0.07056,0 0.142876,-0.288637 0.474295,-0.641415 z m 32.56442,-0.06414 -0.621995,-0.705556 0.705556,0.621995 c 0.659448,0.58135 0.823214,0.789117 0.621994,0.789117 -0.04596,0 -0.363456,-0.3175 -0.705555,-0.705556 z m -43.72321,0.195362 c -0.09016,-0.145881 0.0138,-0.188183 0.244692,-0.09958 0.220793,0.08473 0.602016,-0.0032 0.847162,-0.195362 0.403252,-0.316117 0.41217,-0.30663 0.0936,0.09958 -0.389062,0.496088 -0.943161,0.587405 -1.185457,0.195362 z m 53.972528,-0.195362 c -0.318567,-0.406208 -0.309649,-0.415695 0.0936,-0.09958 0.245146,0.192175 0.626369,0.280087 0.847162,0.195362 0.230901,-0.0886 0.334852,-0.0463 0.244692,0.09958 -0.242296,0.392043 -0.796395,0.300726 -1.185457,-0.195362 z M 43.278051,60.976623 c 0.146835,-0.274364 0.393782,-0.577214 0.548771,-0.673002 0.154991,-0.09579 0.08336,0.12869 -0.159168,0.498843 -0.513547,0.783772 -0.779477,0.902646 -0.389603,0.174159 z m 42.215594,-0.174159 c -0.242531,-0.370153 -0.314159,-0.594632 -0.159168,-0.498843 0.296177,0.183049 0.893534,1.171845 0.707939,1.171845 -0.05929,0 -0.306237,-0.302852 -0.548771,-0.673002 z M 35.445343,60.563332 c -0.478244,-0.383153 -0.475098,-0.387889 0.07925,-0.119255 0.3175,0.15386 0.577273,0.33341 0.577273,0.399001 0,0.196329 -0.133058,0.139633 -0.656518,-0.279746 z m 57.614095,0.288775 c 0,-0.07056 0.230909,-0.251863 0.513132,-0.402903 0.282222,-0.151041 0.513131,-0.216893 0.513131,-0.146338 0,0.07056 -0.230909,0.251863 -0.513131,0.402903 -0.282223,0.15104 -0.513132,0.216893 -0.513132,0.146338 z M 44.055396,59.839203 c 0,-0.05328 0.202046,-0.255321 0.44899,-0.44899 0.406929,-0.319134 0.416004,-0.310059 0.09687,0.09687 -0.335169,0.427375 -0.545859,0.563285 -0.545859,0.352121 z m 40.504648,-0.352121 c -0.319135,-0.406928 -0.31006,-0.416003 0.09687,-0.09687 0.427374,0.33517 0.563284,0.545859 0.352121,0.545859 -0.05328,0 -0.255322,-0.202045 -0.44899,-0.44899 z m -33.83394,-0.705555 c 0.331418,-0.352778 0.660305,-0.641414 0.73086,-0.641414 0.07056,0 -0.142876,0.288636 -0.474295,0.641414 -0.331418,0.352778 -0.660305,0.641414 -0.73086,0.641414 -0.07056,0 0.142876,-0.288636 0.474295,-0.641414 z m 27.299867,-0.192424 -0.488755,-0.577273 0.577272,0.488755 c 0.3175,0.268814 0.577273,0.528587 0.577273,0.577273 0,0.205316 -0.206481,0.05374 -0.66579,-0.488755 z M 46.49277,57.11385 c 0.980209,-0.987778 1.839925,-1.79596 1.91048,-1.79596 0.07056,0 -0.673705,0.808182 -1.653914,1.79596 -0.980209,0.987778 -1.839925,1.79596 -1.91048,1.79596 -0.07056,0 0.673705,-0.808182 1.653914,-1.79596 z m 35.912312,-0.06414 -1.789078,-1.860102 1.860101,1.789079 c 1.023055,0.983994 1.860101,1.821039 1.860101,1.860101 0,0.188194 -0.269428,-0.06142 -1.931124,-1.789078 z m -43.257161,0.897979 c -0.319134,-0.406928 -0.310059,-0.416003 0.09687,-0.09687 0.246945,0.193669 0.44899,0.395715 0.44899,0.44899 0,0.211164 -0.210689,0.07525 -0.545859,-0.352121 z m 50.319598,0.352121 c 0,-0.05328 0.202045,-0.255321 0.44899,-0.44899 0.406928,-0.319134 0.416003,-0.310059 0.09687,0.09687 -0.33517,0.427375 -0.545859,0.563285 -0.545859,0.352121 z M 51.752366,58.043244 c 0,-0.05328 0.202046,-0.255322 0.44899,-0.44899 0.406929,-0.319135 0.416003,-0.31006 0.09687,0.09687 -0.33517,0.427374 -0.545859,0.563285 -0.545859,0.352121 z m 25.110708,-0.352121 c -0.319134,-0.406929 -0.31006,-0.416004 0.09687,-0.09687 0.427374,0.335169 0.563285,0.545859 0.352121,0.545859 -0.05328,0 -0.255322,-0.202046 -0.44899,-0.44899 z M 37.497868,56.971412 c -0.478244,-0.383152 -0.475098,-0.387888 0.07925,-0.119254 0.3175,0.15386 0.577273,0.33341 0.577273,0.399001 0,0.196329 -0.133057,0.139633 -0.656518,-0.279747 z m 16.563589,-0.497096 c 0,-0.173805 2.083975,-1.210497 2.200043,-1.094432 0.05378,0.05379 -0.419223,0.348976 -1.051126,0.65598 -0.631904,0.307001 -1.148917,0.504305 -1.148917,0.438452 z m 20.381867,-0.272601 c -0.478244,-0.383152 -0.475098,-0.387888 0.07925,-0.119254 0.3175,0.15386 0.577273,0.33341 0.577273,0.399001 0,0.196329 -0.133058,0.139633 -0.656518,-0.279747 z m -1.396008,-0.627259 c -0.211666,-0.136791 -0.269394,-0.248707 -0.128282,-0.248707 0.141111,0 0.429747,0.111916 0.641414,0.248707 0.211666,0.136791 0.269394,0.248707 0.128283,0.248707 -0.141112,0 -0.429748,-0.111916 -0.641415,-0.248707 z m -24.117172,-0.61 c 0,-0.05328 0.202045,-0.255322 0.44899,-0.44899 0.406928,-0.319135 0.416003,-0.31006 0.09687,0.09687 -0.33517,0.427374 -0.545859,0.563285 -0.545859,0.352121 z m 30.755152,-0.352121 c -0.319134,-0.406929 -0.310059,-0.416004 0.09687,-0.09687 0.246945,0.193668 0.44899,0.395714 0.44899,0.44899 0,0.211164 -0.210689,0.07525 -0.545859,-0.352121 z M 58.888099,54.372931 c 0.185207,-0.07411 0.406495,-0.065 0.491752,0.02024 0.08525,0.08526 -0.06628,0.145893 -0.336743,0.134753 -0.298886,-0.01232 -0.359679,-0.07311 -0.155009,-0.155006 z m 11.032323,0 c 0.185207,-0.07411 0.406498,-0.065 0.491752,0.02024 0.08525,0.08526 -0.06628,0.145893 -0.336742,0.134753 -0.298887,-0.01232 -0.35968,-0.07311 -0.15501,-0.155006 z M 59.914361,54.116365 c 0.185208,-0.07411 0.406495,-0.065 0.491752,0.02024 0.08525,0.08526 -0.06628,0.145894 -0.336742,0.134754 -0.298886,-0.01232 -0.35968,-0.07311 -0.15501,-0.155007 z m 8.979799,0 c 0.185207,-0.07411 0.406497,-0.065 0.491751,0.02024 0.08526,0.08526 -0.06628,0.145894 -0.336742,0.134754 -0.298886,-0.01232 -0.359679,-0.07311 -0.155009,-0.155007 z m -7.57984,-0.2591 c 0.24963,-0.06505 0.595994,-0.06077 0.769697,0.0095 0.173702,0.07028 -0.03054,0.123504 -0.453873,0.118275 -0.423333,-0.0052 -0.565455,-0.06273 -0.315824,-0.12778 z m 5.90101,0 c 0.249631,-0.06505 0.595994,-0.06077 0.769697,0.0095 0.173703,0.07028 -0.03054,0.123504 -0.453872,0.118275 -0.423334,-0.0052 -0.565456,-0.06273 -0.315825,-0.12778 z M 64.003377,53.59743 c 0.3175,-0.06115 0.837045,-0.06115 1.154545,0 0.3175,0.06115 0.05773,0.111188 -0.577273,0.111188 -0.635,0 -0.894772,-0.05004 -0.577272,-0.111188 z M 52.008932,52.882051 c 0,-0.172697 2.597019,-1.466804 2.712281,-1.351542 0.05258,0.05258 -0.536173,0.405451 -1.308341,0.784157 -0.772168,0.378706 -1.40394,0.63403 -1.40394,0.567385 z m 24.309597,-0.276565 c -0.959156,-0.520351 -0.900772,-0.737077 0.06414,-0.238101 0.423333,0.218915 0.769697,0.452787 0.769697,0.51972 0,0.1651 -0.02757,0.155789 -0.833838,-0.281619 z M 74.58671,51.725971 c -0.211666,-0.136791 -0.269394,-0.248707 -0.128282,-0.248707 0.141111,0 0.429747,0.111916 0.641414,0.248707 0.211666,0.136791 0.269394,0.248707 0.128283,0.248707 -0.141112,0 -0.429748,-0.111916 -0.641415,-0.248707 z M 55.344286,51.21284 c 0.211666,-0.136791 0.500303,-0.248707 0.641414,-0.248707 0.141111,0 0.08338,0.111916 -0.128283,0.248707 -0.211667,0.13679 -0.500303,0.248707 -0.641414,0.248707 -0.141111,0 -0.08338,-0.111917 0.128283,-0.248707 z m 17.959596,0 c -0.211667,-0.136791 -0.269394,-0.248707 -0.128283,-0.248707 0.141111,0 0.429748,0.111916 0.641414,0.248707 0.211667,0.13679 0.269394,0.248707 0.128283,0.248707 -0.141111,0 -0.429747,-0.111917 -0.641414,-0.248707 z M 57.348705,50.524446 c 0.185207,-0.07411 0.406495,-0.065 0.491752,0.02024 0.08525,0.08526 -0.06628,0.145893 -0.336743,0.134753 -0.298886,-0.01232 -0.359679,-0.07311 -0.155009,-0.155006 z m 14.111111,0 c 0.185207,-0.07411 0.406498,-0.065 0.491752,0.02024 0.08525,0.08526 -0.06628,0.145893 -0.336742,0.134753 -0.298887,-0.01232 -0.35968,-0.07311 -0.15501,-0.155006 z M 59.40123,50.011314 c 0.185207,-0.07411 0.406495,-0.065 0.491752,0.02024 0.08525,0.08526 -0.06628,0.145893 -0.336743,0.134753 -0.298886,-0.01232 -0.359679,-0.07311 -0.155009,-0.155007 z m 10.006061,0 c 0.185207,-0.07411 0.406498,-0.065 0.491752,0.02024 0.08525,0.08526 -0.06628,0.145893 -0.336743,0.134753 -0.298886,-0.01232 -0.359679,-0.07311 -0.155009,-0.155007 z m -8.606103,-0.2591 c 0.249631,-0.06505 0.595995,-0.06077 0.769697,0.0095 0.173703,0.07028 -0.03054,0.123503 -0.453872,0.118274 -0.423333,-0.0052 -0.565455,-0.06273 -0.315825,-0.12778 z m 6.927273,0 c 0.249631,-0.06505 0.595995,-0.06077 0.769697,0.0095 0.173703,0.07028 -0.03054,0.123503 -0.453872,0.118274 -0.423333,-0.0052 -0.565455,-0.06273 -0.315825,-0.12778 z m -4.109933,-0.265669 c 0.529167,-0.05535 1.395076,-0.05535 1.924243,0 0.529166,0.05535 0.09621,0.100641 -0.962122,0.100641 -1.058333,0 -1.491287,-0.04529 -0.962121,-0.100641 z m -0.922479,-4.36714 c -0.06541,-0.105833 0.782661,-0.192424 1.8846,-0.192424 1.10194,0 1.95001,0.08659 1.884601,0.192424 -0.06541,0.105834 -0.913479,0.192424 -1.884601,0.192424 -0.971121,0 -1.819191,-0.08659 -1.8846,-0.192424 z"
         id="path475" /><path
         style="fill:#5c5c5c;stroke-width:0.256566"
         d="m 35.071703,148.96436 -0.124388,-3.97677 -1.785263,-0.0771 c -0.981895,-0.0424 -1.939257,-0.20489 -2.127468,-0.36109 -0.237529,-0.19713 -0.319281,-0.8014 -0.267262,-1.97544 l 0.07494,-1.69144 1.785263,-0.0771 c 0.981895,-0.0424 1.93909,-0.20475 2.127099,-0.36078 0.240284,-0.19942 0.319681,-0.82438 0.267262,-2.10373 l -0.07457,-1.82003 -1.785263,-0.0771 c -0.981895,-0.0424 -1.939257,-0.20488 -2.127468,-0.36108 -0.237529,-0.19714 -0.319281,-0.80141 -0.267262,-1.97545 l 0.07494,-1.69144 1.837638,-0.0749 c 1.161491,-0.0473 1.944812,-0.20406 2.128916,-0.42589 0.173446,-0.20899 0.260375,-1.06088 0.214886,-2.10588 l -0.07639,-1.75491 -1.785263,-0.0771 c -0.981895,-0.0424 -1.939257,-0.20488 -2.127468,-0.36108 -0.237529,-0.19713 -0.319281,-0.80141 -0.267262,-1.97545 l 0.07494,-1.69143 1.785263,-0.0771 c 0.981895,-0.0424 1.934395,-0.20085 2.116667,-0.35212 0.222311,-0.1845 0.331403,-0.97884 0.331403,-2.41305 v -2.13802 l -2.501515,-1.96837 C 21.476944,108.26853 14.718354,96.972747 12.323482,83.155265 c -0.61872,-3.569768 -0.615928,-12.797411 0.005,-16.420203 3.223063,-18.805896 15.535081,-34.103405 33.009776,-41.014183 4.40367,-1.741535 13.111193,-3.783872 13.713434,-3.216467 0.14644,0.137969 -0.09674,0.229639 -0.609179,0.229639 -1.52998,0 -7.261709,1.283739 -10.410316,2.331606 -7.770822,2.586155 -14.706095,6.867231 -20.536011,12.676676 -18.9724916,18.905876 -20.6959724,48.898015 -4.02383,70.022997 2.103526,2.66534 6.504364,6.93502 9.361456,9.08246 l 2.498385,1.87783 v 2.38795 c 0,1.63847 -0.104014,2.47428 -0.331404,2.663 -0.182271,0.15127 -1.134771,0.30972 -2.116666,0.35212 l -1.785264,0.0771 -0.07638,1.60354 -0.07638,1.60353 h 1.534933 c 0.844214,0 1.831088,0.1126 2.193051,0.25022 0.629815,0.23945 0.658117,0.3374 0.658117,2.27767 0,1.34387 -0.111737,2.1202 -0.331404,2.3025 -0.182271,0.15128 -1.134771,0.30973 -2.116666,0.35213 l -1.785264,0.0771 -0.07638,1.60353 -0.07638,1.60354 h 1.534933 c 0.844214,0 1.831088,0.1126 2.193051,0.25021 0.629815,0.23946 0.658117,0.33741 0.658117,2.27768 0,1.34387 -0.111737,2.12019 -0.331404,2.3025 -0.182271,0.15127 -1.134771,0.30973 -2.116666,0.35212 l -1.785264,0.0771 v 1.66768 1.66768 l 2.000663,0.0752 c 1.305017,0.049 2.043487,0.18676 2.123828,0.39612 0.06774,0.17653 0.08933,2.04772 0.04797,4.15818 l -0.0752,3.83722 z m 58.872107,-0.12829 0.0136,-4.10505 2.052525,-0.12828 2.052525,-0.12828 v -1.66768 -1.66768 l -1.785263,-0.0771 c -0.981895,-0.0424 -1.934395,-0.20085 -2.116667,-0.35212 -0.219656,-0.18231 -0.331393,-0.95863 -0.331393,-2.3025 0,-1.94027 0.0283,-2.03822 0.658117,-2.27768 0.361963,-0.13761 1.348837,-0.25021 2.193051,-0.25021 h 1.534933 l -0.07638,-1.60354 -0.07638,-1.60353 -1.785264,-0.0771 c -0.981895,-0.0424 -1.934395,-0.20085 -2.116666,-0.35213 -0.219667,-0.1823 -0.331404,-0.95863 -0.331404,-2.3025 0,-1.94027 0.0283,-2.03822 0.658117,-2.27767 0.361963,-0.13762 1.348837,-0.25022 2.193051,-0.25022 h 1.534933 l -0.07638,-1.60353 -0.07638,-1.60354 -1.785264,-0.0771 c -0.981895,-0.0424 -1.934395,-0.20085 -2.116666,-0.35212 -0.227405,-0.18873 -0.331404,-1.02469 -0.331404,-2.66388 v -2.38884 l 2.157546,-1.62066 C 109.86072,106.68161 117.76347,90.223449 117.09217,73.149204 116.55764,59.553874 111.18943,47.233173 101.66515,37.742333 97.124719,33.217849 93.004271,30.325048 87.030145,27.467685 82.194988,25.155079 77.133617,23.596441 72.338259,22.94335 c -1.298117,-0.176794 -2.275763,-0.399967 -2.172547,-0.495942 0.103216,-0.09597 1.457665,0.04587 3.009887,0.31521 18.559057,3.220347 33.865211,15.67788 40.667071,33.098537 4.03665,10.338527 4.66972,21.869742 1.7954,32.702909 -2.97735,11.221502 -9.44841,20.880596 -19.050854,28.436496 l -2.501515,1.96837 v 2.13802 c 0,1.43421 0.109092,2.22855 0.331403,2.41305 0.182272,0.15127 1.134772,0.30973 2.116667,0.35212 l 1.785263,0.0771 0.07494,1.69143 c 0.05202,1.17404 -0.02973,1.77832 -0.267262,1.97545 -0.188211,0.1562 -1.145573,0.31869 -2.127468,0.36108 l -1.785263,0.0771 -0.07639,1.75491 c -0.04549,1.045 0.04144,1.89689 0.214886,2.10588 0.184104,0.22183 0.967425,0.37854 2.128916,0.42589 l 1.837638,0.0749 0.07494,1.69144 c 0.05202,1.17404 -0.02973,1.77831 -0.267262,1.97545 -0.188211,0.1562 -1.145573,0.31869 -2.127468,0.36108 l -1.785263,0.0771 -0.07457,1.82003 c -0.05242,1.27935 0.02698,1.90431 0.267262,2.10373 0.188009,0.15603 1.145204,0.31838 2.127099,0.36078 l 1.785263,0.0771 0.07494,1.69144 c 0.05202,1.17404 -0.02973,1.77831 -0.267262,1.97544 -0.188211,0.1562 -1.145573,0.31869 -2.127468,0.36109 l -1.785263,0.0771 -0.141891,3.97677 -0.141891,3.97677 0.0136,-4.10506 z m -55.010701,0.14515 c -0.288726,-0.53949 -0.352511,-2.87345 -0.103881,-3.80121 l 0.154702,-0.57727 h 25.596719 25.59672 l 0.154702,0.57727 c 0.24863,0.92776 0.184845,3.26172 -0.103881,3.80121 -0.259837,0.48551 -0.815738,0.49627 -25.647541,0.49627 -24.831802,0 -25.387703,-0.0108 -25.64754,-0.49627 z m 50.993775,-2.00525 0.07452,-2.11666 H 64.591025 39.180649 v 2.00976 c 0,1.10537 0.07753,2.0873 0.172294,2.18206 0.09476,0.0948 11.495899,0.14287 25.335859,0.1069 l 25.163565,-0.0654 z m -51.020825,-6.51196 c -0.318439,-0.59501 -0.231873,-3.90695 0.111086,-4.25002 0.113368,-0.11341 9.669267,-0.23704 21.235326,-0.27474 l 21.029202,-0.0685 -0.07627,-1.59913 -0.07627,-1.59913 -20.981165,-0.0656 -20.981163,-0.0657 -0.271818,-0.70405 c -0.294933,-0.76392 -0.202449,-3.7651 0.126148,-4.0937 0.264439,-0.26444 50.854586,-0.26444 51.119025,0 0.328915,0.32891 0.420948,3.33012 0.125579,4.0952 -0.263703,0.68305 -0.333959,0.70556 -2.202983,0.70556 h -1.930593 v 1.63963 1.63963 l 1.906976,0.0963 c 1.048838,0.053 1.997913,0.18724 2.109059,0.29838 0.339876,0.33988 0.423442,3.65471 0.10704,4.24591 l -0.292644,0.54681 H 64.580649 39.198703 Z m 51.020825,-1.9547 0.07452,-2.11667 -1.742193,-0.004 c -0.958207,-0.002 -1.892211,-0.0991 -2.075563,-0.21539 -0.234078,-0.14848 -0.310493,-0.73953 -0.256565,-1.98445 l 0.0768,-1.773 1.924243,-0.12828 1.924242,-0.12828 0.07452,-2.11667 0.07452,-2.11667 H 64.580649 39.159898 l 0.07452,2.11667 0.07452,2.11667 21.038384,0.12828 21.038384,0.12828 0.07697,1.62594 c 0.04629,0.97787 -0.04293,1.7704 -0.223838,1.98838 -0.254611,0.30679 -3.507163,0.36245 -21.179491,0.36245 H 39.180649 v 2.00976 c 0,1.10538 0.07753,2.0873 0.172294,2.18206 0.09476,0.0948 11.495899,0.14287 25.335859,0.1069 l 25.163565,-0.0654 z M 38.917733,123.41937 c -0.137619,-0.36196 -0.250216,-2.02404 -0.250216,-3.6935 v -3.03538 l -2.441296,-1.73051 C 26.750173,108.24291 19.946228,98.342834 16.984392,86.962176 c -1.893134,-7.274242 -1.892343,-16.497308 0.0021,-23.991204 1.697446,-6.714775 5.177005,-13.650963 9.502295,-18.941971 1.625577,-1.988524 5.588331,-5.925251 7.565415,-7.515729 2.379727,-1.914386 6.135022,-4.269717 9.111253,-5.714601 13.507002,-6.557308 29.323469,-6.557308 42.830471,0 4.933953,2.39531 8.792187,5.143137 12.920906,9.202248 4.322428,4.249551 7.031818,7.997209 9.682338,13.392729 3.50062,7.125993 4.9908,13.648559 4.98086,21.801352 -0.01,8.01176 -1.58591,14.563211 -5.25864,21.858227 -3.65288,7.255583 -8.799019,13.237393 -15.434626,17.941033 l -2.392941,1.69623 v 3.03538 c 0,1.66946 -0.112597,3.33154 -0.250216,3.6935 l -0.250216,0.65812 H 64.58069 39.16799 Z m 51.088776,-3.31865 c 0.08478,-1.97556 0.171368,-3.60875 0.192425,-3.62931 0.02106,-0.0206 0.643223,-0.42466 1.382596,-0.89798 3.496711,-2.23848 7.421324,-5.75394 10.41281,-9.32726 5.27029,-6.295329 8.70106,-13.437068 10.47623,-21.808077 0.65615,-3.094148 0.70764,-3.771379 0.712,-9.364647 0.005,-6.687019 -0.21818,-8.432926 -1.76805,-13.817597 C 109.17404,53.471813 105.01453,46.479032 99.098075,40.550002 93.439058,34.878954 87.423011,31.12498 80.036681,28.655818 63.132865,23.005072 44.610173,27.006437 31.437656,39.154424 c -7.967328,7.347648 -13.152778,17.01645 -15.135691,28.222053 -0.459843,2.598609 -0.457684,12.557283 0.0033,15.137374 1.655147,9.264096 5.15962,16.921201 10.861713,23.732319 2.982314,3.56236 6.916715,7.08925 10.385255,9.30957 0.724221,0.4636 1.385313,1.0986 1.469095,1.41112 0.08378,0.31251 0.153911,1.90555 0.155838,3.54009 0.0021,1.63454 0.08103,3.04942 0.175796,3.14418 0.09476,0.0948 11.495899,0.14287 25.335859,0.1069 l 25.163565,-0.0654 z m -27.29717,-5.1639 c -0.09967,-0.0997 -0.157993,-1.57629 -0.129609,-3.28139 l 0.0516,-3.10016 0.140821,3.07878 0.140819,3.07879 h 1.667676 1.667677 l 0.145024,-3.07879 0.145024,-3.07878 -0.01673,3.20707 -0.01673,3.20707 -1.807169,0.0743 c -0.993943,0.0409 -1.888716,-0.007 -1.988384,-0.1069 z M 30.395722,96.047689 c -0.2075,-0.3175 -0.623649,-1.060963 -0.924773,-1.652139 l -0.5475,-1.074864 0.702841,-0.482615 c 0.386565,-0.26544 1.280116,-0.807174 1.985672,-1.203855 0.705555,-0.396681 1.678496,-0.959001 2.162091,-1.2496 0.483596,-0.290597 0.801773,-0.402975 0.707059,-0.249726 -0.09471,0.153247 -1.26727,0.896887 -2.60568,1.652534 -1.379752,0.778985 -2.433705,1.540546 -2.434003,1.75875 -2.57e-4,0.211667 0.348029,0.939965 0.774043,1.618437 l 0.774569,1.233588 0.824092,-0.489812 c 0.453249,-0.269399 1.552453,-0.923575 2.442672,-1.453729 0.890218,-0.530155 1.674047,-0.908448 1.741839,-0.840658 0.110909,0.110908 -4.802434,3.010962 -5.101246,3.010962 -0.06842,0 -0.294176,-0.259772 -0.501676,-0.577273 z m 65.17602,-0.893795 c -1.369899,-0.802039 -2.449792,-1.499187 -2.399761,-1.54922 0.05003,-0.05003 1.119119,0.493612 2.375749,1.208096 1.256633,0.714484 2.412146,1.299061 2.567807,1.299061 0.3216,0 1.615494,-2.094841 1.612915,-2.611343 -0.001,-0.186539 -0.953431,-0.880531 -2.116667,-1.542201 -1.817847,-1.034029 -3.666662,-2.271137 -2.88467,-1.930239 0.665313,0.290038 5.255558,3.047462 5.363325,3.221824 0.14896,0.24103 -1.452248,3.185758 -1.788301,3.288792 -0.131818,0.04042 -1.360498,-0.58273 -2.730397,-1.38477 z M 94.775018,59.668315 c 0.167458,-0.205511 1.348864,-0.95093 2.625344,-1.656485 1.365089,-0.754534 2.322707,-1.447046 2.325327,-1.681588 0.0026,-0.219317 -0.34437,-0.948803 -0.770716,-1.621077 L 98.179804,53.486845 97.351438,53.983 c -2.510677,1.503788 -4.111755,2.370353 -4.205776,2.276332 -0.103604,-0.103601 4.854148,-2.993967 5.135457,-2.993967 0.249828,0 1.973441,3.109525 1.841741,3.322631 -0.0698,0.112919 -0.966018,0.696958 -1.991621,1.297865 -1.025601,0.600905 -2.268821,1.331856 -2.76271,1.624333 -0.532394,0.315278 -0.774025,0.379653 -0.593511,0.158121 z M 31.661261,58.280618 c -1.242886,-0.742716 -2.374816,-1.465416 -2.515398,-1.605998 -0.169762,-0.169762 0.05476,-0.785168 0.668548,-1.832431 0.508283,-0.867253 1.005212,-1.575233 1.104285,-1.573291 0.330985,0.0065 5.572662,3.068135 5.258931,3.071722 -0.169995,0.0021 -1.376808,-0.623816 -2.681809,-1.390576 -1.304998,-0.766759 -2.463405,-1.338064 -2.574236,-1.269569 -0.432477,0.267288 -1.535499,2.432723 -1.408179,2.764516 0.07409,0.193089 1.182719,0.950794 2.463608,1.683792 2.135968,1.22232 2.652717,1.59153 2.136466,1.526476 -0.105833,-0.01334 -1.20933,-0.631924 -2.452216,-1.374641 z m 30.978405,-20.152627 0.01674,-3.207071 h 1.924242 1.924243 l 0.01673,3.207071 0.01673,3.207071 -0.145024,-3.078788 -0.145023,-3.078788 H 64.580627 62.91295 l -0.145024,3.078788 -0.145023,3.078788 0.01675,-3.207071 z M 61.950851,22.039853 c 0.3175,-0.06115 0.837046,-0.06115 1.154546,0 0.3175,0.06115 0.05773,0.111187 -0.577273,0.111187 -0.635,0 -0.894773,-0.05003 -0.577273,-0.111187 z m 4.105051,0 c 0.3175,-0.06115 0.837046,-0.06115 1.154546,0 0.3175,0.06115 0.05773,0.111187 -0.577273,0.111187 -0.635,0 -0.894773,-0.05003 -0.577273,-0.111187 z"
         id="path473" /><path
         style="fill:#624d37;stroke-width:0.256566"
         d="m 31.926947,144.41757 c 0.455463,-0.0567 1.263645,-0.0576 1.79596,-0.002 0.532312,0.0555 0.159661,0.10191 -0.828117,0.10305 -0.987778,0.001 -1.423308,-0.0443 -0.967843,-0.10098 z m 20.146126,-0.007 c 6.879167,-0.038 18.135986,-0.038 25.015153,0 6.879166,0.038 1.250757,0.0691 -12.507577,0.0691 -13.758333,0 -19.386742,-0.0311 -12.507576,-0.0691 z m 43.225593,0.007 c 0.455463,-0.0567 1.263645,-0.0576 1.79596,-0.002 0.532312,0.0555 0.159661,0.10191 -0.828117,0.10305 -0.987778,0.001 -1.423308,-0.0443 -0.967843,-0.10098 z M 81.082971,134.34011 c 0,-0.91722 0.04657,-1.29244 0.103481,-0.83383 0.05691,0.45861 0.05691,1.20906 0,1.66767 -0.05691,0.45861 -0.103481,0.0834 -0.103481,-0.83384 z m -50.644974,-24.05303 -0.621995,-0.70555 0.705556,0.62199 c 0.659448,0.58135 0.823214,0.78912 0.621994,0.78912 -0.04596,0 -0.363456,-0.3175 -0.705555,-0.70556 z m 67.881037,0.19243 c 0.255409,-0.28222 0.522106,-0.51313 0.592662,-0.51313 0.07055,0 -0.08069,0.23091 -0.336096,0.51313 -0.255409,0.28222 -0.522106,0.51313 -0.592662,0.51313 -0.07055,0 0.08069,-0.23091 0.336096,-0.51313 z m -69.553671,-1.8601 -0.488755,-0.57728 0.577273,0.48876 c 0.542492,0.45931 0.694071,0.66579 0.488755,0.66579 -0.04869,0 -0.308459,-0.25977 -0.577273,-0.57727 z m 71.349627,0.0641 c 0.25541,-0.28222 0.52211,-0.51313 0.59267,-0.51313 0.0705,0 -0.0807,0.23091 -0.3361,0.51313 -0.25541,0.28222 -0.522106,0.51313 -0.592662,0.51313 -0.07055,0 0.08069,-0.23091 0.336092,-0.51313 z m -37.548425,-1.71668 c -0.02114,-1.01472 0.04815,-1.89864 0.153983,-1.96425 0.105834,-0.0656 0.159438,0.47598 0.119119,1.20354 -0.130738,2.35921 -0.233811,2.64632 -0.273102,0.76071 z m 3.807437,-0.13182 c -0.06912,-1.08723 -0.03341,-1.88396 0.07935,-1.77052 0.112765,0.11343 0.16932,1.00299 0.125676,1.97677 l -0.07935,1.77053 z m -3.140322,-6.80732 c 0.740833,-0.05183 1.953106,-0.05183 2.693939,0 0.740834,0.0518 0.134697,0.0942 -1.34697,0.0942 -1.481666,0 -2.087803,-0.0424 -1.346969,-0.0942 z M 58.551356,99.45285 C 55.936144,98.755035 54.686826,98.269469 52.572902,97.129234 47.435354,94.358076 43.330629,89.751991 41.108465,84.264506 40.161499,81.926038 39.418831,78.724971 39.46967,77.20093 c 0.02181,-0.653775 0.107288,-0.383794 0.260581,0.823022 1.378468,10.85215 9.434299,19.360298 20.392691,21.537692 0.970072,0.19275 1.417404,0.354948 0.994071,0.360436 -0.423333,0.0055 -1.577879,-0.205663 -2.565657,-0.46923 z m 11.14745,-0.03768 c 9.186813,-1.927824 16.282994,-8.569642 19.01694,-17.799297 0.250793,-0.846667 0.464812,-1.356417 0.475598,-1.132779 0.02572,0.533323 -0.870735,3.248186 -1.667348,5.049469 -1.616349,3.65485 -5.42777,8.107652 -8.911383,10.410976 -3.091067,2.043779 -8.470395,4.053753 -10.69661,3.996764 -0.352778,-0.009 0.449483,-0.245341 1.782803,-0.525133 z M 59.577619,95.877186 C 53.427591,94.324453 48.578736,90.566677 45.6323,85.069817 c -1.067523,-1.991568 -2.103343,-4.772668 -2.071757,-5.562518 0.01006,-0.251396 0.216985,0.236523 0.459848,1.084264 1.819132,6.349885 6.771925,11.813854 12.863289,14.190906 2.42826,0.947587 4.603396,1.32168 7.696969,1.323771 5.777036,0.0039 10.375295,-1.779973 14.417569,-5.593249 2.978848,-2.810095 5.075631,-6.196733 6.14269,-9.921428 0.242863,-0.847741 0.449793,-1.33566 0.459848,-1.084264 0.03163,0.791017 -1.004847,3.572076 -2.076722,5.572208 -2.865179,5.346472 -8.064564,9.384546 -13.877986,10.778265 -2.758848,0.661413 -7.48949,0.670534 -10.068429,0.01942 z M 36.12324,93.444151 c 0.0588,-0.05611 0.831165,-0.525028 1.716376,-1.042034 l 1.60947,-0.940008 -0.71149,-1.292377 c -0.391322,-0.710808 -0.856976,-1.351511 -1.034789,-1.423786 -0.177815,-0.07227 -1.034729,0.29239 -1.904256,0.810365 -0.869524,0.517973 -1.447623,0.781115 -1.28466,0.584757 0.474685,-0.571959 2.863268,-1.783996 3.234793,-1.641427 0.420008,0.161172 1.953219,2.773297 1.78632,3.043346 -0.139015,0.224931 -3.122945,2.003187 -3.361366,2.003187 -0.08651,0 -0.109192,-0.04591 -0.0504,-0.102023 z m 56.038218,-0.252332 c -0.282222,-0.180092 -1.011025,-0.642266 -1.619565,-1.027053 l -1.106432,-0.699614 0.69008,-1.204437 c 1.112643,-1.941966 1.213111,-2.00591 2.34559,-1.492904 0.535234,0.242459 1.261792,0.672702 1.61457,0.956092 0.360777,0.289816 0.01493,0.172291 -0.790443,-0.268609 -0.787521,-0.431128 -1.555868,-0.783867 -1.707439,-0.783867 -0.316815,0 -1.607169,2.100528 -1.607169,2.616264 0,0.189243 0.692728,0.724908 1.539394,1.190367 1.433071,0.787834 1.815718,1.087441 1.34697,1.054659 -0.105833,-0.0074 -0.423333,-0.160805 -0.705556,-0.340898 z m -29.50304,-3.803522 c -0.06537,-0.182611 -0.150291,-1.135534 -0.188714,-2.117603 l -0.06986,-1.785582 -1.047786,-0.302458 c -0.576282,-0.166352 -1.384464,-0.478672 -1.795959,-0.694043 -1.200348,-0.62825 -2.955075,-2.692254 -2.918709,-3.433146 0.0056,-0.115111 0.19287,0.137073 0.416044,0.560406 0.879394,1.66809 2.388934,2.806266 4.399878,3.317456 l 1.203098,0.305833 0.128283,2.036842 0.128283,2.036839 h 1.667676 1.667677 l 0.128283,-2.018433 0.128283,-2.018433 1.481179,-0.457151 c 2.508461,-0.774213 3.842797,-2.069572 4.448603,-4.31866 0.207515,-0.770415 0.325584,-0.966049 0.333124,-0.55197 0.01747,0.958814 -0.825305,2.584265 -1.840263,3.549324 -0.494787,0.470462 -1.634567,1.120979 -2.532844,1.445594 l -1.633233,0.590206 -0.128283,2.018046 -0.128283,2.018042 -1.863811,0.07546 c -1.348004,0.05457 -1.896703,-0.01642 -1.982663,-0.256565 z m -0.558076,-7.808461 c -0.62551,-0.137663 -1.744485,-1.092885 -1.92913,-1.646823 -0.0802,-0.240615 -0.681474,-0.41753 -1.768664,-0.520407 l -1.647151,-0.155864 1.465339,-0.03912 c 1.386234,-0.03701 1.519176,0.01526 2.462668,0.968225 1.153353,1.164936 2.046814,1.406216 4.660377,1.258536 1.989218,-0.112398 3.038576,-0.672222 3.45577,-1.843619 0.278995,-0.783364 -0.356621,-1.859649 -1.421412,-2.406868 -0.339175,-0.174308 -0.468302,-0.318626 -0.286948,-0.320707 0.596664,-0.0069 1.53702,0.777414 1.856255,1.54812 0.247142,0.596648 0.247142,0.91773 0,1.514379 -0.529675,1.278751 -1.392292,1.649486 -3.981948,1.711359 -1.27,0.03034 -2.559319,9.8e-5 -2.865156,-0.06721 z m -5.679776,-1.503359 c 0.0052,-0.423333 0.06273,-0.565455 0.12778,-0.315825 0.06505,0.249631 0.06077,0.595995 -0.0095,0.769697 -0.07028,0.173703 -0.123503,-0.03054 -0.118274,-0.453872 z m 32.977342,-1.79596 c 0.07687,-0.987778 0.181712,-1.844065 0.232974,-1.902863 0.171406,-0.196598 0.03515,2.14932 -0.170126,2.929126 -0.122898,0.466854 -0.147623,0.06306 -0.06285,-1.026263 z m -46.205619,-0.54894 c -0.208334,-1.519964 -0.185494,-4.546864 0.04406,-5.838426 0.100828,-0.567305 0.177638,0.736243 0.177638,3.014646 0,2.207774 -0.01316,4.014134 -0.02927,4.014134 -0.01609,0 -0.102688,-0.53566 -0.192424,-1.190354 z m 29.391914,0.54894 c 0.0052,-0.423333 0.06273,-0.565455 0.12778,-0.315824 0.06505,0.24963 0.06077,0.595994 -0.0095,0.769697 -0.07028,0.173702 -0.123503,-0.03054 -0.118274,-0.453873 z m 13.163114,-3.335353 c 0,-2.292248 0.07713,-3.617499 0.177638,-3.052013 0.0977,0.549717 0.177639,1.923124 0.177639,3.052013 0,1.128889 -0.07994,2.502295 -0.177639,3.052012 -0.100504,0.565487 -0.177638,-0.759765 -0.177638,-3.052012 z m 31.192983,3.313974 c 0.0123,-0.298887 0.0731,-0.35968 0.15501,-0.15501 0.0741,0.185207 0.065,0.406495 -0.0203,0.491752 -0.0852,0.08525 -0.14589,-0.06628 -0.13475,-0.336742 z M 72.150122,76.871882 c -0.307292,-0.968189 -1.755004,-2.37518 -3.077706,-2.99113 -1.070517,-0.498515 -1.712427,-0.599609 -3.850352,-0.606393 -3.10094,-0.0099 -4.465708,-0.49562 -4.997186,-1.778721 -0.293019,-0.70741 -0.281114,-0.943882 0.0863,-1.714366 0.575949,-1.207776 1.691751,-1.635098 4.269468,-1.635098 2.392114,0 3.711474,0.444843 4.14566,1.39778 0.277502,0.60905 0.420786,0.654745 2.0531,0.654745 1.597904,0 1.754776,-0.04701 1.754776,-0.525873 0,-0.703723 -0.674686,-2.00262 -1.504542,-2.896528 -0.823265,-0.886804 -1.841451,-1.439744 -3.370206,-1.83023 L 66.504889,64.651167 66.376606,62.614325 66.248323,60.577486 H 64.580646 62.91297 l -0.128283,2.036839 -0.128283,2.036842 -1.154545,0.294901 c -2.724515,0.695917 -4.410834,2.329417 -4.892746,4.7395 -0.162617,0.813251 -0.182341,0.830205 -0.209063,0.179683 -0.03717,-0.904869 0.564996,-2.113224 1.602753,-3.21622 0.913248,-0.970657 1.833085,-1.50378 3.349249,-1.941168 l 1.047786,-0.302271 0.128283,-2.042337 0.128283,-2.042334 h 1.924242 1.924243 l 0.128283,2.042334 0.128283,2.042337 1.047786,0.302271 c 1.516164,0.437388 2.436001,0.970511 3.349249,1.941168 0.994133,1.05663 1.632258,2.288922 1.632258,3.152078 0,0.640119 -0.03933,0.654156 -1.83291,0.654156 -1.799131,0 -1.848241,-0.01773 -2.664599,-0.962122 l -0.831688,-0.962121 h -2.87261 -2.872609 l -0.748651,0.837887 c -0.852332,0.953924 -0.927526,1.486498 -0.330272,2.339199 0.677526,0.967301 1.891733,1.312277 4.640552,1.318447 2.841172,0.0064 4.194877,0.452236 5.674576,1.868984 0.880759,0.843287 1.714862,2.18274 1.495706,2.401893 -0.06807,0.06808 -0.20223,-0.123421 -0.298124,-0.42555 z M 60.98707,76.629687 c -2.524254,-0.767842 -4.976963,-3.653714 -4.537212,-5.338508 0.08804,-0.337302 0.125237,-0.303394 0.147494,0.134448 0.04633,0.911498 0.757387,2.420266 1.518625,3.222326 1.31932,1.390073 2.482201,1.792778 5.694976,1.972171 l 2.950505,0.164746 -2.565657,0.02022 C 62.78469,76.8162 61.340761,76.73728 60.98707,76.629691 Z M 39.245349,74.945164 c 0.0028,-0.564445 0.05539,-0.765143 0.116758,-0.445999 0.06137,0.319145 0.05904,0.780963 -0.0052,1.026263 -0.06422,0.2453 -0.114429,-0.01583 -0.111581,-0.580264 z m 50.543436,0 c 0.0028,-0.564445 0.05539,-0.765143 0.116758,-0.445999 0.06137,0.319145 0.05904,0.780963 -0.0052,1.026263 -0.06422,0.2453 -0.114429,-0.01583 -0.111581,-0.580264 z M 39.57381,71.866376 c 0.396212,-6.226572 4.634302,-13.423626 10.292409,-17.478403 1.684974,-1.207506 5.873555,-3.29186 7.145743,-3.555925 0.423334,-0.08787 -0.05771,0.176878 -1.068991,0.58833 -4.052852,1.648955 -7.097776,3.689989 -9.70526,6.50551 -3.568462,3.85317 -5.785174,8.586388 -6.528758,13.940488 l -0.249425,1.795959 z m 49.893709,0.75888 c 0,-2.79292 -1.565379,-7.525992 -3.561052,-10.767178 -2.938965,-4.773194 -7.149859,-8.229739 -12.688139,-10.415158 -1.01128,-0.399052 -1.698645,-0.729524 -1.527479,-0.734381 0.451755,-0.01283 2.783735,0.924178 4.563538,1.833644 5.98538,3.058489 10.868745,9.070356 12.688953,15.62125 0.54522,1.96224 0.982677,5.370619 0.689305,5.370619 -0.09082,0 -0.165126,-0.408957 -0.165126,-0.908796 z M 43.560543,70.383028 c -0.02798,-0.699639 0.937999,-3.393519 1.906414,-5.316535 1.041287,-2.067719 3.453545,-5.162096 5.021739,-6.441748 2.923383,-2.385491 6.968357,-4.392227 9.510342,-4.718138 0.82382,-0.105625 0.645432,-0.01331 -0.677985,0.350823 -3.726721,1.025413 -6.645694,2.690653 -9.458172,5.395779 -2.778198,2.672152 -4.80184,6.013047 -5.84249,9.645555 -0.242863,0.847742 -0.449793,1.33566 -0.459848,1.084264 z M 85.263177,69.81385 C 84.652092,66.685771 82.09435,62.323093 79.306218,59.653209 76.475047,56.94211 73.561512,55.281343 69.840246,54.25743 c -1.323417,-0.364141 -1.501805,-0.456448 -0.677985,-0.350823 2.541985,0.325911 6.586959,2.332647 9.510342,4.718138 1.568194,1.279652 3.980452,4.374029 5.021739,6.441748 1.046778,2.078625 1.984703,4.778987 1.859968,5.355013 -0.04986,0.230234 -0.180863,-0.04321 -0.291133,-0.607656 z M 36.02904,60.747579 c -0.67505,-0.399431 -1.367777,-0.871148 -1.539394,-1.04826 -0.171614,-0.177113 0.414012,0.100476 1.301393,0.616863 0.887384,0.51639 1.727541,0.900848 1.867021,0.854356 0.139477,-0.04649 0.597439,-0.68658 1.017693,-1.422418 l 0.764099,-1.337885 -0.578592,-0.358437 c -0.318226,-0.197143 -1.098137,-0.660919 -1.733137,-1.030614 -0.635,-0.369699 -1.066204,-0.67327 -0.958234,-0.674604 0.309862,-0.0038 2.940012,1.527428 3.235855,1.883895 0.319019,0.384394 -1.188725,3.077303 -1.780209,3.179539 -0.20302,0.03509 -0.921443,-0.263003 -1.596495,-0.662435 z m 54.636684,-0.234234 c -1.179386,-1.878066 -1.222079,-2.017835 -0.740959,-2.425813 0.650094,-0.551262 2.901635,-1.805373 3.023124,-1.683884 0.0576,0.0576 -0.586461,0.493512 -1.431252,0.968684 -0.844794,0.475175 -1.535987,1.000955 -1.535987,1.1684 0,0.519948 1.310243,2.678205 1.625469,2.677509 0.164326,-2.56e-4 0.970062,-0.405443 1.790529,-0.900181 0.820463,-0.494735 1.42416,-0.790153 1.341548,-0.656482 -0.198954,0.321913 -2.81626,1.813888 -3.182022,1.813888 -0.157442,0 -0.558146,-0.432954 -0.89045,-0.962121 z M 61.826096,53.59439 c 0.389996,-0.05897 0.967268,-0.0574 1.282829,0.0035 0.31556,0.0609 -0.0035,0.109148 -0.709084,0.107224 -0.705555,-0.0021 -0.96374,-0.05175 -0.573745,-0.110726 z m 4.361617,0 c 0.389995,-0.05897 0.967268,-0.0574 1.282828,0.0035 0.31556,0.0609 -0.0035,0.109148 -0.709083,0.107224 -0.705556,-0.0021 -0.963741,-0.05175 -0.573745,-0.110726 z M 64.13166,53.345072 c 0.246944,-0.06453 0.651035,-0.06453 0.897979,0 0.246945,0.06453 0.0449,0.117335 -0.44899,0.117335 -0.493888,0 -0.695934,-0.0528 -0.448989,-0.117335 z M 58.33314,50.44469 c 2.022348,-0.815915 8.441877,-0.957593 11.58895,-0.255768 2.045914,0.456256 1.470678,0.538426 -0.861027,0.122995 -2.623004,-0.467334 -6.361684,-0.464481 -8.970313,0.0069 -2.336543,0.422166 -2.525422,0.4357 -1.75761,0.125928 z m 4.306352,-5.725842 c -0.07578,-0.197475 -0.09636,-1.097339 -0.04572,-1.999699 l 0.09205,-1.640653 0.04944,1.860101 0.04943,1.860101 h 1.784719 1.78472 l 0.09221,-1.731818 0.09221,-1.731818 -0.01683,1.795959 -0.01683,1.79596 -1.863811,0.07546 c -1.41311,0.05721 -1.897129,-0.01137 -2.001589,-0.283589 z m -33.72147,-3.640352 c 0.331419,-0.352778 0.660305,-0.641414 0.730861,-0.641414 0.07055,0 -0.142876,0.288636 -0.474295,0.641414 -0.331419,0.352778 -0.660305,0.641414 -0.730861,0.641414 -0.07055,0 0.142876,-0.288636 0.474295,-0.641414 z m 71.04927,-0.06414 -0.621995,-0.705556 0.705553,0.621996 c 0.38806,0.342097 0.70556,0.659597 0.70556,0.705555 0,0.201218 -0.20777,0.03745 -0.789118,-0.621995 z M 30.457416,39.539102 c 0.331419,-0.352778 0.660305,-0.641414 0.730861,-0.641414 0.07056,0 -0.142876,0.288636 -0.474295,0.641414 -0.331419,0.352778 -0.660305,0.641414 -0.730861,0.641414 -0.07055,0 0.142876,-0.288636 0.474295,-0.641414 z m 67.837242,-0.192424 -0.488755,-0.577273 0.577273,0.488755 c 0.3175,0.268814 0.577272,0.528587 0.577272,0.577272 0,0.205318 -0.206481,0.05374 -0.66579,-0.488754 z M 25.967517,39.154253 c 0.255409,-0.282222 0.522106,-0.513131 0.592662,-0.513131 0.07055,0 -0.08069,0.230909 -0.336096,0.513131 -0.255409,0.282223 -0.522106,0.513132 -0.592662,0.513132 -0.07055,0 0.08069,-0.230909 0.336096,-0.513132 z m 76.945323,-0.06414 -0.48876,-0.577273 0.57728,0.488755 c 0.54249,0.459308 0.69407,0.665791 0.48875,0.665791 -0.0487,0 -0.30846,-0.259773 -0.57727,-0.577273 z M 28.533174,36.588597 c 0.255408,-0.282222 0.522106,-0.513131 0.592661,-0.513131 0.07056,0 -0.08069,0.230909 -0.336096,0.513131 -0.255408,0.282222 -0.522106,0.513131 -0.592661,0.513131 -0.07056,0 0.08069,-0.230909 0.336096,-0.513131 z m 71.677376,-0.192424 c -0.319135,-0.406928 -0.31006,-0.416003 0.0969,-0.09687 0.42737,0.335169 0.56328,0.545858 0.35212,0.545858 -0.0533,0 -0.25532,-0.202046 -0.44899,-0.44899 z M 59.066304,22.480424 c -0.08989,-0.145437 0.01311,-0.188449 0.241423,-0.100833 0.44448,0.170562 0.525803,0.35446 0.156752,0.35446 -0.132783,0 -0.311964,-0.114132 -0.398175,-0.253627 z m 10.389093,0.152794 c 0,-0.05546 0.179178,-0.169591 0.398175,-0.253627 0.228323,-0.08762 0.331308,-0.0446 0.241423,0.100833 -0.150671,0.24379 -0.639598,0.36059 -0.639598,0.152794 z"
         id="path471" /><path
         style="fill:#323232;stroke-width:0.256566"
         d="m 35.286423,149.16714 c 0.09737,-4.90702 0.143449,-4.82096 -2.581197,-4.82096 h -1.759163 l 0.07638,-1.60354 0.07638,-1.60354 2.052526,-0.12828 2.052525,-0.12828 0.07517,-2.15695 c 0.04581,-1.31452 -0.03404,-2.26648 -0.204455,-2.43738 -0.153793,-0.15423 -1.111255,-0.33815 -2.127694,-0.4087 l -1.848071,-0.12828 v -1.5394 -1.53939 l 1.785264,-0.0771 c 0.981895,-0.0424 1.934395,-0.20085 2.116666,-0.35213 0.44955,-0.37309 0.458665,-4.20461 0.0107,-4.49454 -0.176389,-0.11416 -1.128889,-0.26529 -2.116666,-0.33585 l -1.79596,-0.12828 v -1.53939 -1.5394 l 1.837639,-0.0749 c 1.153883,-0.0471 1.945168,-0.20449 2.126637,-0.42315 0.181651,-0.21888 0.261468,-1.23746 0.214886,-2.74227 l -0.07411,-2.39406 -1.647098,-1.22801 C 25.604659,111.41457 19.596407,103.74986 15.99232,94.936409 12.278071,85.853566 11.169584,76.127354 12.746839,66.459544 16.349057,44.379695 33.598634,27.010675 55.777245,23.131182 c 1.243538,-0.21752 2.665071,-0.397628 3.15896,-0.40024 0.5928,-0.0031 0.781104,-0.07883 0.554074,-0.222723 -0.454788,-0.288254 4.30248,-0.494703 7.807509,-0.338818 1.494425,0.06646 2.583716,0.203302 2.420648,0.304084 -0.163071,0.100783 0.435459,0.251591 1.330062,0.335131 2.568566,0.239856 6.740052,1.174976 9.991988,2.239897 13.076395,4.282167 24.211234,13.899191 30.442254,26.29261 2.51411,5.000526 3.92432,9.322367 4.95516,15.186011 0.82865,4.713576 0.82519,12.140567 -0.008,16.884697 -2.43273,13.853871 -9.16225,24.956839 -20.355935,33.585029 l -2.24495,1.73043 v 2.38712 c 0,1.63779 0.10403,2.47345 0.331404,2.66216 0.182271,0.15127 1.134771,0.30972 2.116666,0.35212 l 1.785264,0.0771 v 1.5394 1.53939 l -1.79596,0.12828 c -0.987778,0.0706 -1.940278,0.22169 -2.116667,0.33585 -0.447968,0.28993 -0.438853,4.12145 0.0107,4.49454 0.182272,0.15128 1.134772,0.30973 2.116667,0.35213 l 1.785261,0.0771 v 1.53939 1.5394 l -1.848071,0.12828 c -1.016439,0.0705 -1.973901,0.25447 -2.127694,0.4087 -0.170411,0.1709 -0.250264,1.12286 -0.204455,2.43738 l 0.07517,2.15695 2.052525,0.12828 2.052526,0.12828 0.07638,1.60354 0.07638,1.60354 h -1.759163 c -2.724646,0 -2.678572,-0.0861 -2.581197,4.82096 l 0.08254,4.15953 H 64.58065 35.203881 Z m 54.89948,0.002 c 0.368048,-0.36805 0.412537,-3.74746 0.05674,-4.3103 -0.213576,-0.33786 -3.346748,-0.38485 -25.661996,-0.38485 -22.315247,0 -25.448419,0.047 -25.661995,0.38485 -0.355795,0.56284 -0.311306,3.94225 0.05674,4.3103 0.446566,0.44657 50.763941,0.44657 51.210507,0 z m 0,-8.46667 c 0.182672,-0.18267 0.307879,-1.0621 0.307879,-2.16248 0,-2.42363 -0.231551,-2.66095 -2.596227,-2.66095 h -1.789874 l 0.07638,-1.60354 0.07639,-1.60353 1.79596,-0.0727 c 1.310014,-0.053 1.882735,-0.18779 2.116666,-0.49803 0.480602,-0.63738 0.42007,-3.78316 -0.08247,-4.28569 -0.361029,-0.36103 -3.027696,-0.40318 -25.509958,-0.40318 -22.482261,0 -25.148928,0.0421 -25.509957,0.40318 -0.283748,0.28374 -0.403175,0.89673 -0.403175,2.06939 0,2.97216 -2.52643,2.65875 21.432259,2.65875 h 20.901076 v 1.66767 1.66768 H 60.23736 c -18.533816,0 -20.806788,0.0433 -21.166668,0.40317 -0.498768,0.49877 -0.573013,3.94255 -0.0953,4.42026 0.446566,0.44657 50.763941,0.44657 51.210507,0 z m 0.04229,-17.12172 c 0.146076,-0.27294 0.265592,-1.92197 0.265592,-3.6645 v -3.16823 l 2.373232,-1.68998 c 11.141653,-7.93396 18.376233,-19.714644 20.321173,-33.090718 0.52775,-3.629504 0.51788,-10.455793 -0.0205,-14.1598 C 110.86575,51.969765 100.95561,38.310034 86.517014,31.073751 79.433046,27.523435 72.300395,25.812839 64.580649,25.812839 c -24.273269,0 -45.102374,18.02143 -48.594197,42.043905 -0.54077,3.7203 -0.554581,10.28473 -0.02951,14.025229 0.685994,4.886868 2.462746,10.675518 4.563905,14.869181 3.753308,7.491156 10.181535,14.742656 17.056265,19.240686 l 1.090404,0.71343 v 3.18985 c 0,1.75441 0.119516,3.41316 0.265592,3.6861 0.259837,0.48551 0.815738,0.49627 25.64754,0.49627 24.831803,0 25.387704,-0.0108 25.647541,-0.49627 z m -27.324685,-9.0571 c -0.07211,-0.18791 -0.09948,-2.41596 -0.06082,-4.95122 l 0.07029,-4.60955 h 1.667676 1.667677 v 4.87474 4.87475 l -1.606855,0.0765 c -1.157635,0.0551 -1.643511,-0.019 -1.737966,-0.26519 z M 60.122942,99.57753 C 53.533165,98.208814 48.294885,94.946243 44.513358,89.85538 37.294473,80.136988 38.021185,66.79933 46.254033,57.907954 c 2.103515,-2.271768 4.404268,-3.955316 7.422576,-5.431377 4.0475,-1.979371 5.875325,-2.377989 10.90404,-2.377989 5.028716,0 6.856541,0.398618 10.904041,2.377989 3.018308,1.476061 5.319061,3.159609 7.422576,5.431377 9.167832,9.901144 8.900422,25.094901 -0.609513,34.631457 -3.26058,3.269708 -7.296173,5.592236 -11.586852,6.668357 -2.807449,0.704121 -8.089969,0.888602 -10.587959,0.369762 z m 9.523106,-3.719758 C 75.802324,94.381857 81.11605,90.05039 83.971695,84.18027 89.110613,73.616615 84.604532,60.76393 73.945296,55.581986 70.221225,53.771543 66.352651,53.090731 62.3357,53.538864 c -2.886315,0.322 -4.57787,0.807422 -7.119697,2.043122 -7.366939,3.581408 -12.180129,11.233102 -12.180129,19.363178 0,8.486358 5.397069,16.603929 13.185489,19.831907 4.008354,1.661296 9.244672,2.082826 13.424685,1.080701 z m -6.679463,-6.57684 c -0.100043,-0.100043 -0.181895,-1.032187 -0.181895,-2.071429 0,-1.283216 -0.102909,-1.92405 -0.320707,-1.997097 -0.176389,-0.05916 -0.806535,-0.231861 -1.400323,-0.383781 -2.138,-0.547001 -4.422004,-2.962762 -4.432326,-4.688007 -0.0041,-0.691254 0.02678,-0.705555 1.525058,-0.705555 1.090129,0 1.624278,0.117453 1.860101,0.409014 1.395971,1.725917 2.426228,2.066921 5.565981,1.842272 1.954984,-0.139877 2.901802,-0.63247 3.364972,-1.750662 0.247142,-0.596649 0.247142,-0.917731 0,-1.514379 -0.554469,-1.338611 -1.340184,-1.630503 -4.87981,-1.812863 -2.5197,-0.129811 -3.427176,-0.279507 -4.233451,-0.698335 -2.098069,-1.089866 -3.278779,-3.031827 -3.260219,-5.362212 0.02181,-2.736848 1.850655,-4.815818 4.927896,-5.60183 l 1.154545,-0.294901 0.128283,-2.036842 0.128283,-2.036839 h 1.667676 1.667677 l 0.128283,2.036839 0.128283,2.036842 1.154545,0.294901 c 1.528755,0.390486 2.546941,0.943426 3.370206,1.83023 0.829856,0.893908 1.504542,2.192805 1.504542,2.896528 0,0.478862 -0.156872,0.525873 -1.754776,0.525873 -1.632314,0 -1.775598,-0.0457 -2.0531,-0.654745 -0.434186,-0.952937 -1.753546,-1.39778 -4.14566,-1.39778 -2.577717,0 -3.693519,0.427322 -4.269468,1.635098 -0.367417,0.770484 -0.379322,1.006956 -0.0863,1.714366 0.530775,1.281402 1.896071,1.768228 4.997186,1.781849 2.014951,0.0089 2.813473,0.123446 3.720202,0.53389 2.292152,1.037577 3.629334,2.949107 3.642003,5.206325 0.01563,2.785459 -1.638036,4.895578 -4.530895,5.781525 l -1.548482,0.474226 -0.128283,2.019695 -0.128283,2.019693 -1.549923,0.07499 c -0.852458,0.04125 -1.631776,-0.0069 -1.731818,-0.1069 z m -32.881004,5.628073 c -0.36975,-0.661555 -0.623293,-1.330468 -0.563426,-1.486475 0.169079,-0.440615 7.839405,-4.815807 8.191446,-4.672443 0.171876,0.07 0.63286,0.709171 1.02441,1.420386 l 0.711909,1.293122 -1.738171,1.000149 c -4.521747,2.601825 -6.439149,3.648087 -6.685573,3.648087 -0.147579,0 -0.570846,-0.541272 -0.940595,-1.202826 z M 93.895986,93.85942 c -2.150454,-1.230619 -3.911136,-2.390111 -3.912626,-2.57665 -0.0015,-0.186539 0.302283,-0.859593 0.675049,-1.495673 0.499716,-0.852696 0.801024,-1.124273 1.146982,-1.033805 0.744947,0.194807 7.707256,4.339595 7.830936,4.661893 0.152128,0.396442 -1.159025,2.698491 -1.531651,2.689185 -0.164325,-0.0041 -2.058236,-1.01433 -4.20869,-2.24495 z M 33.407921,58.935458 c -2.116666,-1.248987 -3.876771,-2.429571 -3.911343,-2.623519 -0.03458,-0.193949 0.278992,-0.894386 0.696814,-1.556523 l 0.759678,-1.20389 3.6648,2.066331 c 2.015638,1.13648 3.925164,2.229689 4.24339,2.429353 l 0.578592,0.363025 -0.763591,1.340191 c -0.419975,0.737106 -0.911249,1.366231 -1.091723,1.398055 -0.180473,0.03182 -2.05995,-0.964035 -4.176617,-2.213023 z m 57.236077,1.096583 c -0.364841,-0.652775 -0.663348,-1.321952 -0.663348,-1.487065 0,-0.301916 7.630558,-4.76648 8.146571,-4.76648 0.350666,0 1.656539,2.31244 1.514663,2.682163 -0.119518,0.311456 -7.66258,4.758242 -8.071384,4.758242 -0.144733,0 -0.561658,-0.534088 -0.926502,-1.18686 z m -27.800829,-20.043949 0.0698,-4.810606 h 1.667676 1.667677 l 0.0698,4.810606 0.0698,4.810606 H 64.58064 62.773359 Z"
         id="path469" /></g></g></svg>
