<?xml version="1.0" encoding="UTF-8" standalone="no"?>
<!-- Created with Inkscape (http://www.inkscape.org/) -->

<svg
   width="153.49414"
   height="29.56016"
   viewBox="0 0 40.611989 7.8211258"
   version="1.1"
   id="svg5"
   xml:space="preserve"
   xmlns="http://www.w3.org/2000/svg"
   xmlns:svg="http://www.w3.org/2000/svg"><defs
     id="defs2" /><g
     id="layer1"
     transform="translate(-14.172844,0.05010899)"><g
       id="g1548"
       transform="translate(-0.878181,-1.0036354)"><path
         style="fill:#ffffff;stroke:#ffffff;stroke-width:0.046376"
         d="M 16.987223,7.5801781 15.074216,6.3930076 V 6.16871 c 0,-0.123364 0.01565,-0.2334179 0.03479,-0.2445597 0.01912,-0.011132 0.875921,0.5093544 1.903978,1.15666 1.028059,0.6473076 1.894128,1.176518 1.924601,1.1760262 0.03047,-4.697e-4 0.764954,-0.4667156 1.632183,-1.0360501 l 1.57678,-1.0351572 0.01327,-0.4479778 c 0.01181,-0.398286 0.0044,-0.447977 -0.06668,-0.447977 -0.04398,0 -0.761274,0.4486875 -1.594003,0.997081 -0.832728,0.5483962 -1.526017,0.9970812 -1.540644,0.9970812 -0.03917,0 -3.707843,-2.2717471 -3.803118,-2.3550026 -0.07062,-0.061698 -0.08116,-0.162356 -0.08116,-0.7744733 0,-0.6699055 0.0049,-0.708202 0.10435,-0.800725 0.143843,-0.1339525 3.705079,-2.37692129 3.773914,-2.37692129 0.0854,0 2.730307,1.66607069 2.730307,1.71986819 0,0.026051 -0.07352,0.089391 -0.163389,0.14075 L 21.355997,2.9307078 20.197671,2.2093384 C 19.560594,1.8125852 18.999272,1.4877161 18.950293,1.487409 c -0.08803,-4.687e-4 -1.038563,0.5758363 -1.104417,0.6696998 -0.06201,0.088395 -0.03827,0.1139277 0.313552,0.3371967 0.191974,0.1218288 0.603309,0.3858812 0.914077,0.5867889 L 19.638538,3.446376 19.501257,3.5562167 C 19.425748,3.6166277 19.345631,3.66616 19.323206,3.6662868 19.30078,3.666425 18.852387,3.3923699 18.326773,3.0573007 L 17.371118,2.4480855 17.184961,2.5545422 c -0.38937,0.2226665 -1.090485,0.6935589 -1.090485,0.732408 0,0.069834 0.128004,0.1570215 1.465093,0.9979086 0.716528,0.4506212 1.342602,0.8192779 1.391278,0.8192352 0.07921,-4.66e-5 0.972097,-0.5531748 3.809539,-2.3598329 0.490661,-0.3124124 0.91326,-0.5549516 0.939114,-0.5389745 0.07622,0.047111 0.05376,0.3302527 -0.03415,0.4302988 -0.09903,0.1127018 -4.633124,2.9787188 -4.712393,2.9787188 -0.03102,0 -0.785139,-0.4594027 -1.675833,-1.0208981 -0.890697,-0.561493 -1.641166,-1.0136585 -1.667708,-1.0048109 -0.02967,0.00989 -0.04826,0.2198079 -0.04826,0.5448877 v 0.5287987 l 0.23188,0.1521418 c 0.127533,0.083678 0.88245,0.5603324 1.677592,1.059234 1.332945,0.8363408 1.454127,0.9026277 1.553594,0.8498258 0.05933,-0.031495 0.862934,-0.5527855 1.785778,-1.1584195 0.922844,-0.6056346 1.689787,-1.0892668 1.704316,-1.0747383 0.01453,0.014532 0.02642,0.4363336 0.02642,0.9373422 0,0.6586982 -0.01606,0.9312375 -0.05797,0.9842798 -0.07215,0.091299 -3.413438,2.3174389 -3.5113,2.3394085 -0.03918,0.00879 -0.932093,-0.5182321 -1.984245,-1.1711773 z"
         id="path1332" /><text
         xml:space="preserve"
         style="font-size:9.08249px;font-family:'Times New Roman';-inkscape-font-specification:'Times New Roman, Normal';fill:#ffffff;fill-opacity:0.693662;stroke:none;stroke-width:0.839373"
         x="24.645958"
         y="7.8362074"
         id="text1493"><tspan
           id="tspan1491"
           style="stroke:none;stroke-width:0.839373"
           x="24.645958"
           y="7.8362074">iFinance</tspan></text></g></g></svg>
